<svg xmlns="http://www.w3.org/2000/svg" xmlns:xlink="http://www.w3.org/1999/xlink" contentStyleType="text/css" data-diagram-type="DESCRIPTION" height="1816.6667px" preserveAspectRatio="none" style="width:1519px;height:1816px;" version="1.1" viewBox="0 0 1519 1816" width="1519.7917px" zoomAndPan="magnify"><title>MLOps Architecture &amp; Results: Linear Regression Quantisation (cali-reg)</title><defs><linearGradient id="g10tn8k20rfm3e0" x1="50%" x2="50%" y1="0%" y2="100%"><stop offset="0%" stop-color="#B8B8B8"/><stop offset="100%" stop-color="#999999"/></linearGradient><linearGradient id="g10tn8k20rfm3e1" x1="50%" x2="50%" y1="0%" y2="100%"><stop offset="0%" stop-color="#B8B8B8"/><stop offset="100%" stop-color="#6B6B6B"/></linearGradient><linearGradient id="g10tn8k20rfm3e2" x1="50%" x2="50%" y1="0%" y2="100%"><stop offset="0%" stop-color="#7C9AB9"/><stop offset="100%" stop-color="#304D6D"/></linearGradient></defs><g><g class="title" data-source-line="2"><rect fill="url(#g10tn8k20rfm3e0)" height="47.168" rx="4.1667" ry="4.1667" style="stroke:#6B6B6B;stroke-width:1.0417;" width="875.6897" x="317.3779" y="20.8333"/><text fill="#304D6D" font-family="'Verdana'" font-size="20.8333" font-weight="bold" lengthAdjust="spacing" textLength="852.773" x="328.8363" y="51.6296">MLOps Architecture &amp; Results: Linear Regression Quantisation (cali-reg)</text></g><!--cluster Local Environment--><g class="cluster" data-entity="Local Environment" data-source-line="6" data-uid="ent0003" id="cluster_Local Environment"><path d="M823.8021,919.793 L963.068,919.793 A6.25,6.25 0 0 1 967.2347,923.9596 L974.5264,951.0104 L1329.0104,951.0104 A4.1667,4.1667 0 0 1 1333.1771,955.1771 L1333.1771,1421.6784 A4.1667,4.1667 0 0 1 1329.0104,1425.8451 L823.8021,1425.8451 A4.1667,4.1667 0 0 1 819.6354,1421.6784 L819.6354,923.9596 A4.1667,4.1667 0 0 1 823.8021,919.793" fill="url(#g10tn8k20rfm3e1)" style="stroke:#446E9B;stroke-width:2.0833;"/><line style="stroke:#446E9B;stroke-width:2.0833;" x1="819.6354" x2="974.5264" y1="951.0104" y2="951.0104"/><text fill="#446E9B" font-family="'Verdana'" font-size="12.5" font-weight="bold" lengthAdjust="spacing" textLength="130.9326" x="829.0104" y="938.6874">Local Environment</text></g><!--cluster GH--><g class="cluster" data-entity="GH" data-source-line="14" data-uid="ent0009" id="cluster_GH"><path d="M696.397,258.081 C701.4948,247.5415 709.5472,245.8358 717.0304,255.6645 C721.3826,246.54 729.213,246.25 733.9841,255.2732 C738.0625,246.2556 747.4017,243.6219 754.0147,252.4242 C759.1546,244.7563 768.3172,244.259 772.5386,253.4344 C778.2516,243.8252 785.6431,242.2763 792.8977,251.7934 C798.5921,242.7162 807.3968,243.9114 811.7615,253.1619 C819.2416,244.2996 828.0263,245.1961 832.7663,256.077 C842.1987,247.0413 853.3362,248.504 856.0938,262.7617 C856.6018,263.0061 856.6229,263.3947 856.2661,263.7849 C865.6374,269.3997 868.4166,275.4803 859.18,283.8036 C869.6591,288.0584 869.5314,296.8746 860.4065,302.4209 C869.647,308.2563 869.1441,317.5161 858.8463,321.7765 C867.2328,326.6926 869.1024,334.9282 859.2814,340.2727 C868.0626,344.9645 869.5389,350.7897 862.4422,358.27 C870.6469,364.2836 870.8956,371.2048 861.2279,375.994 C869.6432,380.5605 870.3943,389.203 861.3918,393.9288 C869.5862,400.9731 871.3116,407.1199 860.8461,413.6478 C867.7649,418.3792 868.5543,426.2161 860.375,430.5262 C868.9826,436.4277 868.8962,445.0376 859.0363,449.646 C867.9903,453.6045 867.5228,461.9177 859.9631,466.7699 C868.3907,472.0236 871.514,481.5538 860.4878,487.3045 C868.1493,494.1311 865.9518,499.2904 858.1705,503.9696 C866.2088,515.5605 862.5401,525.7582 848.8021,529.293 C849.131,528.9027 849.5718,528.9124 849.7662,529.4351 C846.8802,538.1407 838.6337,540.432 832.2848,533.2438 C826.8849,543.8241 817.746,543.53 811.2793,534.3795 C808.4502,544.8095 800.1652,545.1869 793.7964,537.8658 C789.3481,550.1829 780.9327,551.302 772.7526,541.4002 C765.9327,547.607 759.0745,545.9074 755.2357,537.7618 C749.3977,545.8474 739.6165,548.0811 734.8875,536.6081 C728.5873,545.8163 720.1886,544.9425 715.9301,534.6258 C701.6125,545.2465 690.0849,538.9113 688.3854,522.0013 C689.6072,522.2521 689.6323,522.956 689.072,523.8637 C678.3765,518.8181 679.9935,511.4677 687.6866,505.0668 C678.2211,501.4804 678.132,492.6463 685.0559,486.711 C676.891,481.5967 676.6783,471.9746 685.6643,467.4007 C675.8025,463.8379 676.2469,455.8817 683.3352,450.0444 C674.4157,445.7593 673.9013,439.2165 680.8631,432.6716 C670.3792,427.735 669.8402,418.4799 678.9272,411.7337 C671.6323,405.9333 670.2408,398.7931 679.5454,393.5572 C670.224,388.2626 671.9653,379.0026 680.6971,374.8175 C672.3286,367.7268 672.4483,361.0272 682.473,355.6397 C676.3847,349.3902 676.9667,344.3397 684.6797,340.0429 C676.4494,334.3014 676.1647,326.3121 685.3621,321.2018 C674.6054,313.6054 675.6931,307.0652 685.8595,299.9587 C679.4448,291.6423 680.5397,286.0166 690.2261,281.5115 C679.1044,269.7725 679.5671,261.5089 695.6771,255.4701 C697.1363,256.0315 697.2298,256.8876 696.397,258.081" fill="url(#g10tn8k20rfm3e1)" style="stroke:#446E9B;stroke-width:1.0417;"/><text fill="#333333" font-family="'Verdana'" font-size="12.5" font-weight="bold" lengthAdjust="spacing" textLength="93.0725" x="725.7033" y="277.4895">GitHub Cloud</text></g><!--cluster Docs--><g class="cluster" data-entity="Docs" data-source-line="21" data-uid="ent0013" id="cluster_Docs"><path d="M391.5104,1133.2721 L436.7944,1133.2721 A6.25,6.25 0 0 1 440.9611,1137.4388 L448.2528,1164.4896 L782.1354,1164.4896 A4.1667,4.1667 0 0 1 786.3021,1168.6563 L786.3021,1276.9492 A4.1667,4.1667 0 0 1 782.1354,1281.1159 L391.5104,1281.1159 A4.1667,4.1667 0 0 1 387.3438,1276.9492 L387.3438,1137.4388 A4.1667,4.1667 0 0 1 391.5104,1133.2721" fill="url(#g10tn8k20rfm3e1)" style="stroke:#D47500;stroke-width:2.0833;"/><line style="stroke:#D47500;stroke-width:2.0833;" x1="387.3438" x2="448.2528" y1="1164.4896" y2="1164.4896"/><text fill="#D47500" font-family="'Verdana'" font-size="12.5" font-weight="bold" lengthAdjust="spacing" textLength="36.9507" x="396.7188" y="1152.1666">docs/</text></g><!--cluster CI--><g class="cluster" data-entity="CI" data-source-line="26" data-uid="ent0016" id="cluster_CI"><rect fill="url(#g10tn8k20rfm3e1)" height="453.9792" rx="4.1667" ry="4.1667" style="stroke:#3399F3;stroke-width:2.0833;" width="252.0833" x="288.3854" y="597.0013"/><path d="M463.6255,597.0013 L463.6255,614.6771 L453.2088,625.0938 L288.3854,625.0938" fill="none" style="stroke:#3399F3;stroke-width:2.0833;"/><text fill="#3399F3" font-family="'Verdana'" font-size="12.5" font-weight="bold" lengthAdjust="spacing" textLength="154.4067" x="296.7188" y="614.8541">CI/CD Workflow (Jobs)</text></g><!--entity Source code\n(src/, tests/)--><g class="entity" data-entity="Source code.n.src.. tests.." data-source-line="7" data-uid="ent0004" id="entity_Source code.n.src.. tests.."><rect fill="url(#g10tn8k20rfm3e2)" height="70.7682" rx="4.1667" ry="4.1667" style="stroke:#304D6D;stroke-width:1.0417;" width="129.4088" x="857.0208" y="963.543"/><rect fill="url(#g10tn8k20rfm3e2)" height="10.4167" style="stroke:#304D6D;stroke-width:1.0417;" width="15.625" x="965.5963" y="968.7513"/><rect fill="url(#g10tn8k20rfm3e2)" height="2.0833" style="stroke:#304D6D;stroke-width:1.0417;" width="4.1667" x="963.5129" y="970.8346"/><rect fill="url(#g10tn8k20rfm3e2)" height="2.0833" style="stroke:#304D6D;stroke-width:1.0417;" width="4.1667" x="963.5129" y="975.0013"/><text fill="#FFFFFF" font-family="'Verdana'" font-size="12.5" lengthAdjust="spacing" textLength="77.3254" x="877.8542" y="1001.1874">Source code</text><text fill="#FFFFFF" font-family="'Verdana'" font-size="12.5" lengthAdjust="spacing" textLength="75.1648" x="877.8542" y="1015.7382">(src/, tests/)</text></g><!--entity Virtual Env\n.venv--><g class="entity" data-entity="Virtual Env.n.venv" data-source-line="8" data-uid="ent0005" id="entity_Virtual Env.n.venv"><rect fill="url(#g10tn8k20rfm3e2)" height="70.7682" rx="4.1667" ry="4.1667" style="stroke:#304D6D;stroke-width:1.0417;" width="120.3939" x="1195.9063" y="1185.3555"/><rect fill="url(#g10tn8k20rfm3e2)" height="10.4167" style="stroke:#304D6D;stroke-width:1.0417;" width="15.625" x="1295.4668" y="1190.5638"/><rect fill="url(#g10tn8k20rfm3e2)" height="2.0833" style="stroke:#304D6D;stroke-width:1.0417;" width="4.1667" x="1293.3835" y="1192.6471"/><rect fill="url(#g10tn8k20rfm3e2)" height="2.0833" style="stroke:#304D6D;stroke-width:1.0417;" width="4.1667" x="1293.3835" y="1196.8138"/><text fill="#FFFFFF" font-family="'Verdana'" font-size="12.5" lengthAdjust="spacing" textLength="68.3105" x="1216.7396" y="1222.9999">Virtual Env</text><text fill="#FFFFFF" font-family="'Verdana'" font-size="12.5" lengthAdjust="spacing" textLength="34.3811" x="1216.7396" y="1237.5507">.venv</text></g><!--entity Artifacts\nlinear_model.joblib\nquant_model.joblib--><g class="entity" data-entity="Artifacts.nlinear_model.joblib.nquant_model.joblib" data-source-line="9" data-uid="ent0006" id="entity_Artifacts.nlinear_model.joblib.nquant_model.joblib"><rect fill="url(#g10tn8k20rfm3e2)" height="85.319" rx="4.1667" ry="4.1667" style="stroke:#304D6D;stroke-width:1.0417;" width="171.5047" x="835.9688" y="1178.0742"/><rect fill="url(#g10tn8k20rfm3e2)" height="10.4167" style="stroke:#304D6D;stroke-width:1.0417;" width="15.625" x="986.6401" y="1183.2826"/><rect fill="url(#g10tn8k20rfm3e2)" height="2.0833" style="stroke:#304D6D;stroke-width:1.0417;" width="4.1667" x="984.5568" y="1185.3659"/><rect fill="url(#g10tn8k20rfm3e2)" height="2.0833" style="stroke:#304D6D;stroke-width:1.0417;" width="4.1667" x="984.5568" y="1189.5326"/><text fill="#FFFFFF" font-family="'Verdana'" font-size="12.5" lengthAdjust="spacing" textLength="52.4109" x="856.8021" y="1215.7187">Artifacts</text><text fill="#FFFFFF" font-family="'Verdana'" font-size="12.5" lengthAdjust="spacing" textLength="118.4387" x="856.8021" y="1230.2694">linear_model.joblib</text><text fill="#FFFFFF" font-family="'Verdana'" font-size="12.5" lengthAdjust="spacing" textLength="119.4214" x="856.8021" y="1244.8202">quant_model.joblib</text></g><!--entity Dockerfile--><g class="entity" data-entity="Dockerfile" data-source-line="10" data-uid="ent0007" id="entity_Dockerfile"><rect fill="url(#g10tn8k20rfm3e2)" height="56.2174" rx="4.1667" ry="4.1667" style="stroke:#304D6D;stroke-width:1.0417;" width="115.3341" x="1044.2604" y="1192.6263"/><rect fill="url(#g10tn8k20rfm3e2)" height="10.4167" style="stroke:#304D6D;stroke-width:1.0417;" width="15.625" x="1138.7611" y="1197.8346"/><rect fill="url(#g10tn8k20rfm3e2)" height="2.0833" style="stroke:#304D6D;stroke-width:1.0417;" width="4.1667" x="1136.6778" y="1199.918"/><rect fill="url(#g10tn8k20rfm3e2)" height="2.0833" style="stroke:#304D6D;stroke-width:1.0417;" width="4.1667" x="1136.6778" y="1204.0846"/><text fill="#FFFFFF" font-family="'Verdana'" font-size="12.5" lengthAdjust="spacing" textLength="63.2507" x="1065.0938" y="1230.2708">Dockerfile</text></g><!--entity README.md\n(docs + results tables)--><g class="entity" data-entity="README.md.n.docs . results tables." data-source-line="11" data-uid="ent0008" id="entity_README.md.n.docs . results tables."><rect fill="url(#g10tn8k20rfm3e2)" height="70.7682" rx="4.1667" ry="4.1667" style="stroke:#304D6D;stroke-width:1.0417;" width="193.5201" x="920.7917" y="1338.4076"/><rect fill="url(#g10tn8k20rfm3e2)" height="10.4167" style="stroke:#304D6D;stroke-width:1.0417;" width="15.625" x="1093.4784" y="1343.6159"/><rect fill="url(#g10tn8k20rfm3e2)" height="2.0833" style="stroke:#304D6D;stroke-width:1.0417;" width="4.1667" x="1091.3951" y="1345.6992"/><rect fill="url(#g10tn8k20rfm3e2)" height="2.0833" style="stroke:#304D6D;stroke-width:1.0417;" width="4.1667" x="1091.3951" y="1349.8659"/><text fill="#FFFFFF" font-family="'Verdana'" font-size="12.5" lengthAdjust="spacing" textLength="77.5269" x="941.625" y="1376.052">README.md</text><text fill="#FFFFFF" font-family="'Verdana'" font-size="12.5" lengthAdjust="spacing" textLength="141.4368" x="941.625" y="1390.6028">(docs + results tables)</text></g><!--entity GitHub Repo\n(main branch)--><g class="entity" data-entity="GitHub Repo.n.main branch." data-source-line="15" data-uid="ent0010" id="entity_GitHub Repo.n.main branch."><rect fill="url(#g10tn8k20rfm3e2)" height="70.7682" rx="4.1667" ry="4.1667" style="stroke:#304D6D;stroke-width:1.0417;" width="140.4928" x="703.5625" y="290.8867"/><rect fill="url(#g10tn8k20rfm3e2)" height="10.4167" style="stroke:#304D6D;stroke-width:1.0417;" width="15.625" x="823.2219" y="296.0951"/><rect fill="url(#g10tn8k20rfm3e2)" height="2.0833" style="stroke:#304D6D;stroke-width:1.0417;" width="4.1667" x="821.1386" y="298.1784"/><rect fill="url(#g10tn8k20rfm3e2)" height="2.0833" style="stroke:#304D6D;stroke-width:1.0417;" width="4.1667" x="821.1386" y="302.3451"/><text fill="#FFFFFF" font-family="'Verdana'" font-size="12.5" lengthAdjust="spacing" textLength="79.248" x="724.3958" y="328.5312">GitHub Repo</text><text fill="#FFFFFF" font-family="'Verdana'" font-size="12.5" lengthAdjust="spacing" textLength="88.4094" x="724.3958" y="343.0819">(main branch)</text></g><!--entity Actions Runner\n(GitHub CI/CD)--><g class="entity" data-entity="Actions Runner.n.GitHub CI.CD." data-source-line="16" data-uid="ent0011" id="entity_Actions Runner.n.GitHub CI.CD."><rect fill="url(#g10tn8k20rfm3e2)" height="70.7682" rx="4.1667" ry="4.1667" style="stroke:#304D6D;stroke-width:1.0417;" width="147.2188" x="697.0729" y="450.1992"/><rect fill="url(#g10tn8k20rfm3e2)" height="10.4167" style="stroke:#304D6D;stroke-width:1.0417;" width="15.625" x="823.4584" y="455.4076"/><rect fill="url(#g10tn8k20rfm3e2)" height="2.0833" style="stroke:#304D6D;stroke-width:1.0417;" width="4.1667" x="821.3751" y="457.4909"/><rect fill="url(#g10tn8k20rfm3e2)" height="2.0833" style="stroke:#304D6D;stroke-width:1.0417;" width="4.1667" x="821.3751" y="461.6576"/><text fill="#FFFFFF" font-family="'Verdana'" font-size="12.5" lengthAdjust="spacing" textLength="95.1355" x="717.9063" y="487.8437">Actions Runner</text><text fill="#FFFFFF" font-family="'Verdana'" font-size="12.5" lengthAdjust="spacing" textLength="92.0227" x="717.9063" y="502.3944">(GitHub CI/CD)</text></g><!--entity architecture.svg\n(this file)--><g class="entity" data-entity="architecture.svg.n.this file." data-source-line="22" data-uid="ent0014" id="entity_architecture.svg.n.this file."><rect fill="url(#g10tn8k20rfm3e2)" height="70.7682" rx="4.1667" ry="4.1667" style="stroke:#304D6D;stroke-width:1.0417;" width="154.0853" x="412.3854" y="1185.3555"/><rect fill="url(#g10tn8k20rfm3e2)" height="10.4167" style="stroke:#304D6D;stroke-width:1.0417;" width="15.625" x="545.6374" y="1190.5638"/><rect fill="url(#g10tn8k20rfm3e2)" height="2.0833" style="stroke:#304D6D;stroke-width:1.0417;" width="4.1667" x="543.554" y="1192.6471"/><rect fill="url(#g10tn8k20rfm3e2)" height="2.0833" style="stroke:#304D6D;stroke-width:1.0417;" width="4.1667" x="543.554" y="1196.8138"/><text fill="#FFFFFF" font-family="'Verdana'" font-size="12.5" lengthAdjust="spacing" textLength="102.002" x="433.2188" y="1222.9999">architecture.svg</text><text fill="#FFFFFF" font-family="'Verdana'" font-size="12.5" lengthAdjust="spacing" textLength="55.5725" x="433.2188" y="1237.5507">(this file)</text></g><!--entity sequence.svg--><g class="entity" data-entity="sequence.svg" data-source-line="23" data-uid="ent0015" id="entity_sequence.svg"><rect fill="url(#g10tn8k20rfm3e2)" height="56.2174" rx="4.1667" ry="4.1667" style="stroke:#304D6D;stroke-width:1.0417;" width="138.1368" x="602.6563" y="1192.6263"/><rect fill="url(#g10tn8k20rfm3e2)" height="10.4167" style="stroke:#304D6D;stroke-width:1.0417;" width="15.625" x="719.9597" y="1197.8346"/><rect fill="url(#g10tn8k20rfm3e2)" height="2.0833" style="stroke:#304D6D;stroke-width:1.0417;" width="4.1667" x="717.8764" y="1199.918"/><rect fill="url(#g10tn8k20rfm3e2)" height="2.0833" style="stroke:#304D6D;stroke-width:1.0417;" width="4.1667" x="717.8764" y="1204.0846"/><text fill="#FFFFFF" font-family="'Verdana'" font-size="12.5" lengthAdjust="spacing" textLength="86.0535" x="623.4896" y="1230.2708">sequence.svg</text></g><!--entity test-suite\n(pytest: 3 passed)--><g class="entity" data-entity="test-suite.n.pytest. 3 passed." data-source-line="27" data-uid="ent0017" id="entity_test-suite.n.pytest. 3 passed."><rect fill="url(#g10tn8k20rfm3e2)" height="70.7682" rx="4.1667" ry="4.1667" style="stroke:#304D6D;stroke-width:1.0417;" width="165.5294" x="345.2083" y="640.7513"/><rect fill="url(#g10tn8k20rfm3e2)" height="10.4167" style="stroke:#304D6D;stroke-width:1.0417;" width="15.625" x="489.9044" y="645.9596"/><rect fill="url(#g10tn8k20rfm3e2)" height="2.0833" style="stroke:#304D6D;stroke-width:1.0417;" width="4.1667" x="487.821" y="648.043"/><rect fill="url(#g10tn8k20rfm3e2)" height="2.0833" style="stroke:#304D6D;stroke-width:1.0417;" width="4.1667" x="487.821" y="652.2096"/><text fill="#FFFFFF" font-family="'Verdana'" font-size="12.5" lengthAdjust="spacing" textLength="59.0149" x="366.0417" y="678.3958">test-suite</text><text fill="#FFFFFF" font-family="'Verdana'" font-size="12.5" lengthAdjust="spacing" textLength="113.446" x="366.0417" y="692.9465">(pytest: 3 passed)</text></g><!--entity train-and-quantize\n(train.py + quantize.py)--><g class="entity" data-entity="train-and-quantize.n.train.py . quantize.py." data-source-line="28" data-uid="ent0018" id="entity_train-and-quantize.n.train.py . quantize.py."><rect fill="url(#g10tn8k20rfm3e2)" height="70.7682" rx="4.1667" ry="4.1667" style="stroke:#304D6D;stroke-width:1.0417;" width="202.0284" x="313.4167" y="800.0638"/><rect fill="url(#g10tn8k20rfm3e2)" height="10.4167" style="stroke:#304D6D;stroke-width:1.0417;" width="15.625" x="494.6117" y="805.2721"/><rect fill="url(#g10tn8k20rfm3e2)" height="2.0833" style="stroke:#304D6D;stroke-width:1.0417;" width="4.1667" x="492.5284" y="807.3555"/><rect fill="url(#g10tn8k20rfm3e2)" height="2.0833" style="stroke:#304D6D;stroke-width:1.0417;" width="4.1667" x="492.5284" y="811.5221"/><text fill="#FFFFFF" font-family="'Verdana'" font-size="12.5" lengthAdjust="spacing" textLength="115.6982" x="334.25" y="837.7083">train-and-quantize</text><text fill="#FFFFFF" font-family="'Verdana'" font-size="12.5" lengthAdjust="spacing" textLength="149.9451" x="334.25" y="852.259">(train.py + quantize.py)</text></g><!--entity build-and-test-container\n(Docker build, smoke test)--><g class="entity" data-entity="build-and-test-container.n.Docker build. smoke test." data-source-line="29" data-uid="ent0019" id="entity_build-and-test-container.n.Docker build. smoke test."><rect fill="url(#g10tn8k20rfm3e2)" height="70.7682" rx="4.1667" ry="4.1667" style="stroke:#304D6D;stroke-width:1.0417;" width="217.9525" x="305.4583" y="963.543"/><rect fill="url(#g10tn8k20rfm3e2)" height="10.4167" style="stroke:#304D6D;stroke-width:1.0417;" width="15.625" x="502.5775" y="968.7513"/><rect fill="url(#g10tn8k20rfm3e2)" height="2.0833" style="stroke:#304D6D;stroke-width:1.0417;" width="4.1667" x="500.4941" y="970.8346"/><rect fill="url(#g10tn8k20rfm3e2)" height="2.0833" style="stroke:#304D6D;stroke-width:1.0417;" width="4.1667" x="500.4941" y="975.0013"/><text fill="#FFFFFF" font-family="'Verdana'" font-size="12.5" lengthAdjust="spacing" textLength="151.0193" x="326.2917" y="1001.1874">build-and-test-container</text><text fill="#FFFFFF" font-family="'Verdana'" font-size="12.5" lengthAdjust="spacing" textLength="165.8691" x="326.2917" y="1015.7382">(Docker build, smoke test)</text></g><!--entity Results--><g class="entity" data-entity="Results" data-source-line="54" data-uid="ent0037" id="entity_Results"><rect fill="url(#g10tn8k20rfm3e1)" height="56.2174" rx="4.1667" ry="4.1667" style="stroke:#3399F3;stroke-width:2.0833;" width="247.8658" x="893.625" y="1474.8034"/><path d="M976.2469,1474.8034 L976.2469,1480.0117 L968.9553,1487.3034 L893.625,1487.3034" fill="none" style="stroke:#3399F3;stroke-width:2.0833;"/><text fill="#3399F3" font-family="'Verdana'" font-size="12.5" lengthAdjust="spacing" textLength="195.7825" x="914.4583" y="1512.4478">Published Results: README.md</text></g><!--entity User--><g class="entity" data-entity="User" data-source-line="4" data-uid="ent0002" id="entity_User"><ellipse cx="1011.3111" cy="94.043" fill="url(#g10tn8k20rfm3e2)" rx="8.3333" ry="8.3333" style="stroke:#304D6D;stroke-width:1.0417;"/><path d="M1011.3111,102.3763 L1011.3111,130.5013 M997.7694,110.7096 L1024.8528,110.7096 M1011.3111,130.5013 L997.7694,146.1263 M1011.3111,130.5013 L1024.8528,146.1263" fill="none" style="stroke:#304D6D;stroke-width:1.0417;"/><text fill="#FFFFFF" font-family="'Verdana'" font-size="12.5" lengthAdjust="spacing" textLength="23.2056" x="999.7083" y="165.0208">You</text></g><!--entity CIART--><g class="entity" data-entity="CIART" data-source-line="19" data-uid="ent0012" id="entity_CIART"><path d="M16.6667,1203.5638 C16.6667,1193.1471 77.9734,1193.1471 77.9734,1193.1471 C77.9734,1193.1471 139.2802,1193.1471 139.2802,1203.5638 L139.2802,1237.9063 C139.2802,1248.3229 77.9734,1248.3229 77.9734,1248.3229 C77.9734,1248.3229 16.6667,1248.3229 16.6667,1237.9063 L16.6667,1203.5638" fill="url(#g10tn8k20rfm3e2)" style="stroke:#304D6D;stroke-width:1.0417;"/><path d="M16.6667,1203.5638 C16.6667,1213.9805 77.9734,1213.9805 77.9734,1213.9805 C77.9734,1213.9805 139.2802,1213.9805 139.2802,1203.5638" fill="none" style="stroke:#304D6D;stroke-width:1.0417;"/><text fill="#FFFFFF" font-family="'Verdana'" font-size="12.5" lengthAdjust="spacing" textLength="91.3635" x="32.2917" y="1234.9583">CI/CD Artifacts</text></g><!--link Source code\n(src/, tests/) to Virtual Env\n.venv--><g class="link" data-entity-1="Source code.n.src.. tests.." data-entity-2="Virtual Env.n.venv" data-source-line="32" data-uid="lnk20" id="link_Source code.n.src.. tests.._Virtual Env.n.venv"><path d="M986.875,1019.5638 C1041.8021,1038.3034 1120.4375,1070.5742 1177.9688,1116.6055 C1201.6458,1135.543 1218.7118,1157.9157 1232.7327,1179.8012" fill="none" id="Source code\n(src/, tests/)-to-Virtual Env\n.venv" style="stroke:#446E9B;stroke-width:3.125;"/><polygon fill="#446E9B" points="1236.1042,1185.0638,1234.5553,1174.9222,1233.2946,1180.6783,1227.5385,1179.4175,1236.1042,1185.0638" style="stroke:#446E9B;stroke-width:3.125;"/></g><!--link Source code\n(src/, tests/) to Artifacts\nlinear_model.joblib\nquant_model.joblib--><g class="link" data-entity-1="Source code.n.src.. tests.." data-entity-2="Artifacts.nlinear_model.joblib.nquant_model.joblib" data-source-line="33" data-uid="lnk21" id="link_Source code.n.src.. tests.._Artifacts.nlinear_model.joblib.nquant_model.joblib"><path d="M921.7188,1034.7826 C921.7188,1073.6263 921.7188,1130.1992 921.7188,1171.6576" fill="none" id="Source code\n(src/, tests/)-to-Artifacts\nlinear_model.joblib\nquant_model.joblib" style="stroke:#446E9B;stroke-width:3.125;"/><polygon fill="#446E9B" points="921.7188,1177.9076,925.8854,1168.5326,921.7188,1172.6992,917.5521,1168.5326,921.7188,1177.9076" style="stroke:#446E9B;stroke-width:3.125;"/></g><!--link Artifacts\nlinear_model.joblib\nquant_model.joblib to Dockerfile--><g class="link" data-entity-1="Artifacts.nlinear_model.joblib.nquant_model.joblib" data-entity-2="Dockerfile" data-source-line="34" data-uid="lnk22" id="link_Artifacts.nlinear_model.joblib.nquant_model.joblib_Dockerfile"><path d="M1007.9583,1220.7409 C1019.9479,1220.7409 1025.6875,1220.7409 1037.6771,1220.7409" fill="none" id="Artifacts\nlinear_model.joblib\nquant_model.joblib-to-Dockerfile" style="stroke:#446E9B;stroke-width:3.125;"/><polygon fill="#446E9B" points="1043.9271,1220.7409,1034.5521,1216.5742,1038.7188,1220.7409,1034.5521,1224.9076,1043.9271,1220.7409" style="stroke:#446E9B;stroke-width:3.125;"/></g><!--link Dockerfile to README.md\n(docs + results tables)--><g class="link" data-entity-1="Dockerfile" data-entity-2="README.md.n.docs . results tables." data-source-line="35" data-uid="lnk23" id="link_Dockerfile_README.md.n.docs . results tables."><path d="M1086.6563,1249.1159 C1072.7396,1274.0117 1055.1747,1305.4521 1040.081,1332.4521" fill="none" id="Dockerfile-to-README.md\n(docs + results tables)" style="stroke:#446E9B;stroke-width:3.125;"/><polygon fill="#446E9B" points="1037.0313,1337.9076,1045.2428,1331.7576,1039.5727,1333.3614,1037.9689,1327.6913,1037.0313,1337.9076" style="stroke:#446E9B;stroke-width:3.125;"/></g><!--link User to Source code\n(src/, tests/)--><g class="link" data-entity-1="User" data-entity-2="Source code.n.src.. tests.." data-source-line="37" data-uid="lnk24" id="link_User_Source code.n.src.. tests.."><path d="M994.375,146.5221 C963.9063,178.1784 902.9688,250.793 902.9688,325.2305 C902.9688,325.2305 902.9688,325.2305 902.9688,836.4909 C902.9688,880.3555 908.8693,924.3153 914.2964,956.9091" fill="none" id="User-to-Source code\n(src/, tests/)" style="stroke:#446E9B;stroke-width:3.125;"/><polygon fill="#446E9B" points="915.3229,963.0742,917.8932,953.1422,914.4675,957.9366,909.673,954.5109,915.3229,963.0742" style="stroke:#446E9B;stroke-width:3.125;"/><text fill="#FFFFFF" font-family="'Verdana'" font-size="12.5" lengthAdjust="spacing" textLength="180.7251" x="909.2188" y="572.1458">develop, test, train, quantise</text></g><!--link User to README.md\n(docs + results tables)--><g class="link" data-entity-1="User" data-entity-2="README.md.n.docs . results tables." data-source-line="38" data-uid="lnk25" id="link_User_README.md.n.docs . results tables."><path d="M1028.2083,130.9909 C1099.4583,136.2826 1371.7188,166.8867 1371.7188,325.2305 C1371.7188,325.2305 1371.7188,325.2305 1371.7188,1221.7826 C1371.7188,1333.9076 1225.8805,1363.4696 1121.0367,1370.8342" fill="none" id="User-to-README.md\n(docs + results tables)" style="stroke:#446E9B;stroke-width:3.125;"/><polygon fill="#446E9B" points="1114.8021,1371.2721,1124.446,1374.7716,1119.9976,1370.9072,1123.8621,1366.4588,1114.8021,1371.2721" style="stroke:#446E9B;stroke-width:3.125;"/><text fill="#FFFFFF" font-family="'Verdana'" font-size="12.5" lengthAdjust="spacing" textLength="123.1018" x="1377.9688" y="760.6249">update docs, tables</text></g><!--link User to Dockerfile--><g class="link" data-entity-1="User" data-entity-2="Dockerfile" data-source-line="40" data-uid="lnk26" id="link_User_Dockerfile"><path d="M1028.2292,146.5221 C1058.6979,178.1784 1119.6354,250.793 1119.6354,325.2305 C1119.6354,325.2305 1119.6354,325.2305 1119.6354,999.9701 C1119.6354,1069.4284 1111.5133,1144.6431 1106.3362,1186.1431" fill="none" id="User-to-Dockerfile" style="stroke:#446E9B;stroke-width:3.125;"/><polygon fill="#446E9B" points="1105.5625,1192.3451,1110.8576,1183.5579,1106.2072,1187.1768,1102.5884,1182.5264,1105.5625,1192.3451" style="stroke:#446E9B;stroke-width:3.125;"/><text fill="#FFFFFF" font-family="'Verdana'" font-size="12.5" lengthAdjust="spacing" textLength="93.9392" x="1125.8854" y="680.9687">build container</text></g><!--link User to GitHub Repo\n(main branch)--><g class="link" data-entity-1="User" data-entity-2="GitHub Repo.n.main branch." data-source-line="41" data-uid="lnk27" id="link_User_GitHub Repo.n.main branch."><path d="M994.0417,131.5117 C955.9479,135.8555 864.0521,151.5326 813.3854,204.4284 C791.1042,227.6992 782.351,257.5484 778.0906,284.2046" fill="none" id="User-to-GitHub Repo\n(main branch)" style="stroke:#446E9B;stroke-width:3.125;"/><polygon fill="#446E9B" points="777.1042,290.3763,782.6982,281.7764,777.9262,285.2332,774.4693,280.4612,777.1042,290.3763" style="stroke:#446E9B;stroke-width:3.125;"/><text fill="#FFFFFF" font-family="'Verdana'" font-size="12.5" lengthAdjust="spacing" textLength="50.5737" x="819.6354" y="222.2812">git push</text></g><!--link GitHub Repo\n(main branch) to Actions Runner\n(GitHub CI/CD)--><g class="link" data-entity-1="GitHub Repo.n.main branch." data-entity-2="Actions Runner.n.GitHub CI.CD." data-source-line="43" data-uid="lnk28" id="link_GitHub Repo.n.main branch._Actions Runner.n.GitHub CI.CD."><path d="M765.9583,361.8555 C764.0417,371.8242 762.2708,382.7513 761.3021,392.9076 C759.5313,411.6888 760.4784,426.4425 762.9888,443.5571" fill="none" id="GitHub Repo\n(main branch)-to-Actions Runner\n(GitHub CI/CD)" style="stroke:#446E9B;stroke-width:3.125;"/><polygon fill="#446E9B" points="763.8958,449.7409,766.6578,439.8604,763.1399,444.5877,758.4127,441.0699,763.8958,449.7409" style="stroke:#446E9B;stroke-width:3.125;"/><text fill="#FFFFFF" font-family="'Verdana'" font-size="12.5" lengthAdjust="spacing" textLength="102.2888" x="767.5521" y="410.7603">triggers pipeline</text></g><!--link Actions Runner\n(GitHub CI/CD) to test-suite\n(pytest: 3 passed)--><g class="link" data-entity-1="Actions Runner.n.GitHub CI.CD." data-entity-2="test-suite.n.pytest. 3 passed." data-source-line="44" data-uid="lnk29" id="link_Actions Runner.n.GitHub CI.CD._test-suite.n.pytest. 3 passed."><path d="M707.4271,521.4076 C645.8229,555.293 558.2055,603.4789 496.6326,637.3435" fill="none" id="Actions Runner\n(GitHub CI/CD)-to-test-suite\n(pytest: 3 passed)" style="stroke:#446E9B;stroke-width:3.125;"/><polygon fill="#446E9B" points="491.1563,640.3555,501.3788,639.4884,495.7199,637.8455,497.3628,632.1866,491.1563,640.3555" style="stroke:#446E9B;stroke-width:3.125;"/></g><!--link test-suite\n(pytest: 3 passed) to train-and-quantize\n(train.py + quantize.py)--><g class="link" data-entity-1="test-suite.n.pytest. 3 passed." data-entity-2="train-and-quantize.n.train.py . quantize.py." data-source-line="45" data-uid="lnk30" id="link_test-suite.n.pytest. 3 passed._train-and-quantize.n.train.py . quantize.py."><path d="M425,711.6888 C422.75,737.8138 420.215,767.3162 417.9546,793.4828" fill="none" id="test-suite\n(pytest: 3 passed)-to-train-and-quantize\n(train.py + quantize.py)" style="stroke:#446E9B;stroke-width:3.125;"/><polygon fill="#446E9B" points="417.4167,799.7096,422.3747,790.728,417.8649,794.5206,414.0723,790.0108,417.4167,799.7096" style="stroke:#446E9B;stroke-width:3.125;"/></g><!--link train-and-quantize\n(train.py + quantize.py) to CIART--><g class="link" data-entity-1="train-and-quantize.n.train.py . quantize.py." data-entity-2="CIART" data-source-line="46" data-uid="lnk31" id="link_train-and-quantize.n.train.py . quantize.py._CIART"><path d="M313.1146,846.8867 C261.4896,856.5846 200.4271,875.3034 156.0938,911.4596 C95.2917,961.043 92.6458,991.4805 73.8021,1067.6471 C69.4688,1085.168 73.4688,1090.2201 73.8021,1108.2721 C74.3438,1137.1055 75.3869,1163.8826 76.3973,1186.4346" fill="none" id="train-and-quantize\n(train.py + quantize.py)-to-CIART" style="stroke:#446E9B;stroke-width:3.125;"/><polygon fill="#446E9B" points="76.6771,1192.6784,80.42,1183.1263,76.444,1187.4753,72.095,1183.4993,76.6771,1192.6784" style="stroke:#446E9B;stroke-width:3.125;"/><text fill="#FFFFFF" font-family="'Verdana'" font-size="12.5" lengthAdjust="spacing" textLength="42.572" x="200.7684" y="989.177">upload</text><text fill="#FFFFFF" font-family="'Verdana'" font-size="12.5" lengthAdjust="spacing" textLength="118.4387" x="162.8351" y="1003.7278">linear_model.joblib</text><text fill="#FFFFFF" font-family="'Verdana'" font-size="12.5" lengthAdjust="spacing" textLength="119.4214" x="162.3438" y="1018.2786">quant_model.joblib</text></g><!--link train-and-quantize\n(train.py + quantize.py) to build-and-test-container\n(Docker build, smoke test)--><g class="link" data-entity-1="train-and-quantize.n.train.py . quantize.py." data-entity-2="build-and-test-container.n.Docker build. smoke test." data-source-line="47" data-uid="lnk32" id="link_train-and-quantize.n.train.py . quantize.py._build-and-test-container.n.Docker build. smoke test."><path d="M414.4271,871.1159 C414.4271,898.2513 414.4271,929.5951 414.4271,956.793" fill="none" id="train-and-quantize\n(train.py + quantize.py)-to-build-and-test-container\n(Docker build, smoke test)" style="stroke:#446E9B;stroke-width:3.125;"/><polygon fill="#446E9B" points="414.4271,963.043,418.5938,953.668,414.4271,957.8346,410.2604,953.668,414.4271,963.043" style="stroke:#446E9B;stroke-width:3.125;"/></g><!--link build-and-test-container\n(Docker build, smoke test) to CIART--><g class="link" data-entity-1="build-and-test-container.n.Docker build. smoke test." data-entity-2="CIART" data-source-line="48" data-uid="lnk33" id="link_build-and-test-container.n.Docker build. smoke test._CIART"><path d="M305.1771,1032.168 C268.0521,1042.1367 226.1458,1052.3242 187.3438,1059.3138 C169.2604,1062.5742 118.5313,1055.1471 105.0521,1067.6471 C70.8438,1099.3659 70.0154,1151.9894 73.3904,1186.4269" fill="none" id="build-and-test-container\n(Docker build, smoke test)-to-CIART" style="stroke:#446E9B;stroke-width:3.125;"/><polygon fill="#446E9B" points="74,1192.6471,77.2324,1182.9104,73.492,1187.4636,68.9388,1183.7232,74,1192.6471" style="stroke:#446E9B;stroke-width:3.125;"/><text fill="#FFFFFF" font-family="'Verdana'" font-size="12.5" lengthAdjust="spacing" textLength="115.9363" x="111.3021" y="1092.7916">download artifacts</text></g><!--link build-and-test-container\n(Docker build, smoke test) to Dockerfile--><g class="link" data-entity-1="build-and-test-container.n.Docker build. smoke test." data-entity-2="Dockerfile" data-source-line="49" data-uid="lnk34" id="link_build-and-test-container.n.Docker build. smoke test._Dockerfile"><path d="M523.6875,1016.3763 C687.9583,1041.7096 983.9375,1090.1888 1025.8854,1116.6055 C1054.875,1134.8451 1073.5765,1162.9251 1086.2119,1186.8001" fill="none" id="build-and-test-container\n(Docker build, smoke test)-to-Dockerfile" style="stroke:#446E9B;stroke-width:3.125;"/><polygon fill="#446E9B" points="1089.1354,1192.3242,1088.4329,1182.0891,1086.6991,1187.7208,1081.0674,1185.9871,1089.1354,1192.3242" style="stroke:#446E9B;stroke-width:3.125;"/><text fill="#FFFFFF" font-family="'Verdana'" font-size="12.5" lengthAdjust="spacing" textLength="73.645" x="1008.8393" y="1085.4999">build image</text><text fill="#FFFFFF" font-family="'Verdana'" font-size="12.5" lengthAdjust="spacing" textLength="74.9695" x="1008.1771" y="1100.0507">cali-reg:test</text></g><!--link build-and-test-container\n(Docker build, smoke test) to Artifacts\nlinear_model.joblib\nquant_model.joblib--><g class="link" data-entity-1="build-and-test-container.n.Docker build. smoke test." data-entity-2="Artifacts.nlinear_model.joblib.nquant_model.joblib" data-source-line="50" data-uid="lnk35" id="link_build-and-test-container.n.Docker build. smoke test._Artifacts.nlinear_model.joblib.nquant_model.joblib"><path d="M463.8021,1034.7409 C502.9375,1060.2096 560.0729,1092.918 615.4688,1108.2721 C653.8854,1118.9076 757.3958,1102.4076 794.6354,1116.6055 C828.4896,1129.5013 855.6526,1150.7716 878.9026,1173.2507" fill="none" id="build-and-test-container\n(Docker build, smoke test)-to-Artifacts\nlinear_model.joblib\nquant_model.joblib" style="stroke:#446E9B;stroke-width:3.125;"/><polygon fill="#446E9B" points="883.3958,1177.5951,879.5521,1168.0831,879.6514,1173.9748,873.7597,1174.0741,883.3958,1177.5951" style="stroke:#446E9B;stroke-width:3.125;"/><text fill="#FFFFFF" font-family="'Verdana'" font-size="12.5" lengthAdjust="spacing" textLength="87.9456" x="621.7188" y="1092.7916">run prediction</text></g><!--link build-and-test-container\n(Docker build, smoke test) to README.md\n(docs + results tables)--><g class="link" data-entity-1="build-and-test-container.n.Docker build. smoke test." data-entity-2="README.md.n.docs . results tables." data-source-line="51" data-uid="lnk36" id="link_build-and-test-container.n.Docker build. smoke test._README.md.n.docs . results tables."><path d="M362.1354,1034.7201 C336.2917,1055.1471 307.6667,1083.4596 293.5938,1116.6055 C262.125,1190.7201 239.6667,1237.9805 293.5938,1297.7826 C334.8229,1343.5013 726.5561,1362.8399 914.254,1369.569" fill="none" id="build-and-test-container\n(Docker build, smoke test)-to-README.md\n(docs + results tables)" style="stroke:#446E9B;stroke-width:3.125;"/><polygon fill="#446E9B" points="920.5,1369.793,911.2803,1365.2931,915.295,1369.6064,910.9817,1373.6211,920.5,1369.793" style="stroke:#446E9B;stroke-width:3.125;"/><text fill="#FFFFFF" font-family="'Verdana'" font-size="12.5" lengthAdjust="spacing" textLength="90.1672" x="299.8438" y="1225.5728">update results</text></g><!--link README.md\n(docs + results tables) to Results--><g class="link" data-entity-1="README.md.n.docs . results tables." data-entity-2="Results" data-source-line="66" data-uid="lnk38" id="link_README.md.n.docs . results tables._Results"><path d="M1017.5521,1409.5534 C1017.5521,1429.9701 1017.5521,1449.1888 1017.5521,1468.1992" fill="none" id="README.md\n(docs + results tables)-to-Results" style="stroke:#446E9B;stroke-width:3.125;stroke-dasharray:7.2917,7.2917;"/><polygon fill="#446E9B" points="1017.5521,1474.4492,1021.7188,1465.0742,1017.5521,1469.2409,1013.3854,1465.0742,1017.5521,1474.4492" style="stroke:#446E9B;stroke-width:3.125;"/></g><!--link Docs to README.md\n(docs + results tables)--><g class="link" data-entity-1="Docs" data-entity-2="README.md.n.docs . results tables." data-source-line="68" data-uid="lnk39" id="link_Docs_README.md.n.docs . results tables."><path d="M786.3065,1246.4626 C786.3533,1246.5781 786.4003,1246.6938 786.4476,1246.8097 C786.5421,1247.0415 786.6374,1247.2742 786.7335,1247.5078 C786.9258,1247.9749 787.1213,1248.4454 787.3202,1248.9191 C787.718,1249.8664 788.129,1250.8264 788.5534,1251.7969 C795.3438,1267.3242 805.5573,1285.5378 819.6354,1297.7826 C848.1979,1322.6159 879.8754,1337.6525 914.6463,1349.09" fill="none" id="Docs-to-README.md\n(docs + results tables)" style="stroke:#446E9B;stroke-width:3.125;stroke-dasharray:7.2917,7.2917;"/><polygon fill="#446E9B" points="920.5833,1351.043,912.9797,1344.1555,915.6358,1349.4155,910.3758,1352.0716,920.5833,1351.043" style="stroke:#446E9B;stroke-width:3.125;"/></g><g class="legend" data-source-line="55"><rect fill="#999999" height="246.224" rx="4.1667" ry="4.1667" style="stroke:#6B6B6B;stroke-width:1.0417;" width="693.7327" x="20.8333" y="1546.6458"/><text fill="#EEEEEE" font-family="'Verdana'" font-size="14.5833" lengthAdjust="spacing" textLength="90.3768" x="42.1356" y="1578.9324">Metric/Table</text><text fill="#EEEEEE" font-family="'Verdana'" font-size="14.5833" lengthAdjust="spacing" textLength="57.0658" x="205.5206" y="1578.9324">Original</text><text fill="#EEEEEE" font-family="'Verdana'" font-size="14.5833" lengthAdjust="spacing" textLength="74.4975" x="454.597" y="1578.9324">Quantised</text><text fill="#EEEEEE" font-family="'Verdana'" font-size="14.5833" lengthAdjust="spacing" text-decoration="line-through" textLength="5.2622" x="37.5" y="1606.325">-</text><text fill="#EEEEEE" font-family="'Verdana'" font-size="14.5833" lengthAdjust="spacing" text-decoration="line-through" textLength="5.2622" x="42.7622" y="1606.325">-</text><text fill="#EEEEEE" font-family="'Verdana'" font-size="14.5833" lengthAdjust="spacing" text-decoration="line-through" textLength="5.2622" x="48.0245" y="1606.325">-</text><text fill="#EEEEEE" font-family="'Verdana'" font-size="14.5833" lengthAdjust="spacing" text-decoration="line-through" textLength="5.2622" x="53.2867" y="1606.325">-</text><text fill="#EEEEEE" font-family="'Verdana'" font-size="14.5833" lengthAdjust="spacing" textLength="21.049" x="58.549" y="1606.325">----</text><text fill="#EEEEEE" font-family="'Verdana'" font-size="14.5833" lengthAdjust="spacing" text-decoration="line-through" textLength="5.2622" x="200.885" y="1606.325">-</text><text fill="#EEEEEE" font-family="'Verdana'" font-size="14.5833" lengthAdjust="spacing" text-decoration="line-through" textLength="5.2622" x="206.1473" y="1606.325">-</text><text fill="#EEEEEE" font-family="'Verdana'" font-size="14.5833" lengthAdjust="spacing" textLength="15.7867" x="211.4095" y="1606.325">---</text><text fill="#EEEEEE" font-family="'Verdana'" font-size="14.5833" lengthAdjust="spacing" text-decoration="line-through" textLength="5.2622" x="449.9613" y="1606.325">-</text><text fill="#EEEEEE" font-family="'Verdana'" font-size="14.5833" lengthAdjust="spacing" text-decoration="line-through" textLength="5.2622" x="455.2236" y="1606.325">-</text><text fill="#EEEEEE" font-family="'Verdana'" font-size="14.5833" lengthAdjust="spacing" textLength="15.7867" x="460.4858" y="1606.325">---</text><text fill="#EEEEEE" font-family="'Verdana'" font-size="14.5833" lengthAdjust="spacing" textLength="95.3115" x="42.1356" y="1633.7176">R&#178; (test split)</text><text fill="#EEEEEE" font-family="'Verdana'" font-size="14.5833" lengthAdjust="spacing" textLength="51.0274" x="205.5206" y="1633.7176">0.5758</text><text fill="#EEEEEE" font-family="'Verdana'" font-size="14.5833" lengthAdjust="spacing" textLength="51.0274" x="454.597" y="1633.7176">0.4854</text><text fill="#EEEEEE" font-family="'Verdana'" font-size="14.5833" lengthAdjust="spacing" textLength="120.519" x="42.1356" y="1661.1101">RMSE (test split)</text><text fill="#EEEEEE" font-family="'Verdana'" font-size="14.5833" lengthAdjust="spacing" textLength="51.0274" x="205.5206" y="1661.1101">0.7456</text><text fill="#EEEEEE" font-family="'Verdana'" font-size="14.5833" lengthAdjust="spacing" textLength="51.0274" x="454.597" y="1661.1101">0.8203</text><text fill="#EEEEEE" font-family="'Verdana'" font-size="14.5833" lengthAdjust="spacing" textLength="131.4494" x="42.1356" y="1688.5027">Prediction (first 5)</text><text fill="#EEEEEE" font-family="'Verdana'" font-size="14.5833" lengthAdjust="spacing" textLength="229.3884" x="205.5206" y="1688.5027">[0.719 1.764 2.71 2.839 2.605]</text><text fill="#EEEEEE" font-family="'Verdana'" font-size="14.5833" lengthAdjust="spacing" textLength="238.6668" x="454.597" y="1688.5027">[0.983 2.063 2.962 3.163 2.806]</text><text fill="#EEEEEE" font-family="'Verdana'" font-size="14.5833" lengthAdjust="spacing" textLength="85.9975" x="42.1356" y="1715.8953">Coefficients</text><text fill="#EEEEEE" font-family="'Verdana'" font-size="14.5833" lengthAdjust="spacing" textLength="211.4441" x="205.5206" y="1715.8953">[0.4487, 0.0097, -0.1233, ...]</text><text fill="#EEEEEE" font-family="'Verdana'" font-size="14.5833" lengthAdjust="spacing" textLength="211.4441" x="454.597" y="1715.8953">[0.4489, 0.0099, -0.1231, ...]</text><text fill="#EEEEEE" font-family="'Verdana'" font-size="14.5833" lengthAdjust="spacing" textLength="66.1947" x="42.1356" y="1743.2879">Intercept</text><text fill="#EEEEEE" font-family="'Verdana'" font-size="14.5833" lengthAdjust="spacing" textLength="65.568" x="205.5206" y="1743.2879">-37.0233</text><text fill="#EEEEEE" font-family="'Verdana'" font-size="14.5833" lengthAdjust="spacing" textLength="65.568" x="454.597" y="1743.2879">-37.0231</text><text fill="#EEEEEE" font-family="'Verdana'" font-size="14.5833" lengthAdjust="spacing" textLength="108.4564" x="42.1356" y="1770.6805">Model File Size</text><text fill="#EEEEEE" font-family="'Verdana'" font-size="14.5833" lengthAdjust="spacing" textLength="47.3958" x="205.5206" y="1770.6805">1.1 KB</text><text fill="#EEEEEE" font-family="'Verdana'" font-size="14.5833" lengthAdjust="spacing" textLength="42.4754" x="454.597" y="1770.6805">486 B</text><line style="stroke:#EEEEEE;stroke-width:1.0417;" x1="32.2917" x2="703.1077" y1="1560.1875" y2="1560.1875"/><line style="stroke:#EEEEEE;stroke-width:1.0417;" x1="32.2917" x2="703.1077" y1="1587.5801" y2="1587.5801"/><line style="stroke:#EEEEEE;stroke-width:1.0417;" x1="32.2917" x2="703.1077" y1="1614.9727" y2="1614.9727"/><line style="stroke:#EEEEEE;stroke-width:1.0417;" x1="32.2917" x2="703.1077" y1="1642.3652" y2="1642.3652"/><line style="stroke:#EEEEEE;stroke-width:1.0417;" x1="32.2917" x2="703.1077" y1="1669.7578" y2="1669.7578"/><line style="stroke:#EEEEEE;stroke-width:1.0417;" x1="32.2917" x2="703.1077" y1="1697.1504" y2="1697.1504"/><line style="stroke:#EEEEEE;stroke-width:1.0417;" x1="32.2917" x2="703.1077" y1="1724.543" y2="1724.543"/><line style="stroke:#EEEEEE;stroke-width:1.0417;" x1="32.2917" x2="703.1077" y1="1751.9355" y2="1751.9355"/><line style="stroke:#EEEEEE;stroke-width:1.0417;" x1="32.2917" x2="703.1077" y1="1779.3281" y2="1779.3281"/><line style="stroke:#EEEEEE;stroke-width:1.0417;" x1="32.2917" x2="32.2917" y1="1560.1875" y2="1779.3281"/><line style="stroke:#EEEEEE;stroke-width:1.0417;" x1="195.6767" x2="195.6767" y1="1560.1875" y2="1779.3281"/><line style="stroke:#EEEEEE;stroke-width:1.0417;" x1="444.753" x2="444.753" y1="1560.1875" y2="1779.3281"/><line style="stroke:#EEEEEE;stroke-width:1.0417;" x1="703.1077" x2="703.1077" y1="1560.1875" y2="1779.3281"/></g><!--SRC=[fLRhRjis5FwlfpZpZyr6BTcExmPMm4tIDcsCjawxOQY3WPQERIuogPAKYxRUI-qHzcGxf2HVWCnn7FsGVSZlVESkyYUpm2M2JbY8CPjwXfiOeJIwVfTe6AfmmGs69bK8FyCOTHeRFO1hBf0fakSAjUPIm8UK2SCrCrOeXopcli9vfUHvB3HImIUD2fY6qXyofKMoTiVcPETQ4XOknOehAPOeJ0b-U02VRsIgGeHGHZWHPQt2MXKCQgDhbLkx_njN9iqq9o9OeLYvvQ4oV4OMzKJ4piS_byGG1t_9QSod4_75khctvjGkP7Y7QiPZTEBuSdWnkWoM4PcEPAZX6QWiT31i6gCc7_xsl32MQGIbLzoyJgTmRgMIZV7Lwoo6V6ECYIIY9UC2feg9S965C0njiZICKo5G4Q8WkggTNsGM8aRscAOykKNOXEVid5yDnnyzRoRZY99RifxMtCQ5zTcvm7OA6EZLdAoO1TTWGysyqFWbHH6wNMTpfjXoO_1tgUvciVmAvJTogYkvsOpRbiFNAT4JQ_BDYWDeGiAqnYWZDug2zfc8V9Tu_jr2tMAGVAEi5giaPGhJbCUHKt3ieHI6m2uxMOt08QgWb_8ENKTacJhOCE17yglmdz_VDaUgdj9QfoY1h_XyOQp9tRRS5RPE7TEfdfizty8FHZg025SOooHRexSjL3KlaiOTdYFC4bsQKFyYM40rNzzrPZUWGLPNs1Hy1tTWZ4XlpWqagLvG2nm2EgO79exO3EL-Zaf3mXEq5VCUL7BC3yt2Gu2SvL7ZyZYui-2-6AuoiMJHqJrvYgaJH_aqjRtWx6pOy80Lm_SKrdlRb2_fy9g8ufWRMFoJZ9podHY0IWKa2YFkMlH93ZngelCTp_i5VZtq51U6moXwYaFdVKgXwGL6swl6nZ5tzXI4FxmOvoWYY75cl3MCa2Oth7sqhiBsMSCx6cWkw8kVYVarXGoGvAtz_tdMXoGoD_xt7oZRzD6zAUQcihLN3zhTTcyhjNhjLYvPlT7DvJsA5jXjjJjRgNTMRsxLtczg3EKPLwJThZZWPz9hzA4HT3ijEAF_zEer-_JkrDkt6Q3VQv9SxzXtltC6pQ3X_lVgdLl7VYvnDkCXfykNtiiTARTQlMwL_AdN-_JhruF6MRDPXI08RZU0VWxe5u163d3iLy8WdJc9WRrd3Nwp6zI9RKzg526FRAl3IvewkA7lobQj4JJWxOj2QlKwyABOywWXihQW6y5H7Hq4pukMyZntQx8hnwZ-1m00]--></g></svg>