<svg xmlns="http://www.w3.org/2000/svg" xmlns:xlink="http://www.w3.org/1999/xlink" contentStyleType="text/css" data-diagram-type="DESCRIPTION" height="1142.7083px" preserveAspectRatio="none" style="width:511px;height:1142px;" version="1.1" viewBox="0 0 511 1142" width="511.4583px" zoomAndPan="magnify"><title>Linear-Reg MLOps Pipeline (cali-reg)</title><defs><linearGradient id="g19er72k9du6l60" x1="50%" x2="50%" y1="0%" y2="100%"><stop offset="0%" stop-color="#B8B8B8"/><stop offset="100%" stop-color="#999999"/></linearGradient><linearGradient id="g19er72k9du6l61" x1="50%" x2="50%" y1="0%" y2="100%"><stop offset="0%" stop-color="#B8B8B8"/><stop offset="100%" stop-color="#6B6B6B"/></linearGradient><linearGradient id="g19er72k9du6l62" x1="50%" x2="50%" y1="0%" y2="100%"><stop offset="0%" stop-color="#7C9AB9"/><stop offset="100%" stop-color="#304D6D"/></linearGradient><linearGradient id="g19er72k9du6l63" x1="50%" x2="50%" y1="0%" y2="100%"><stop offset="0%" stop-color="#F2FCFE"/><stop offset="100%" stop-color="#EEEEEE"/></linearGradient><linearGradient id="g19er72k9du6l64" x1="50%" x2="50%" y1="0%" y2="100%"><stop offset="0%" stop-color="#6B6B6B"/><stop offset="100%" stop-color="#6B6B6B"/></linearGradient></defs><g><g class="title" data-source-line="3"><rect fill="url(#g19er72k9du6l60)" height="47.168" rx="4.1667" ry="4.1667" style="stroke:#6B6B6B;stroke-width:1.0417;" width="453.54" x="24.4487" y="20.8333"/><text fill="#304D6D" font-family="'Verdana'" font-size="20.8333" font-weight="bold" lengthAdjust="spacing" textLength="430.6234" x="35.9071" y="51.6296">Linear-Reg MLOps Pipeline (cali-reg)</text></g><!--cluster GitHub--><g class="cluster" data-entity="GitHub" data-source-line="7" data-uid="ent0003" id="cluster_GitHub"><path d="M274.3125,247.1367 L331.474,247.1367 A6.25,6.25 0 0 1 335.6406,251.3034 L342.9323,278.3542 L495.1458,278.3542 A4.1667,4.1667 0 0 1 499.3125,282.5208 L499.3125,479.3659 A4.1667,4.1667 0 0 1 495.1458,483.5326 L274.3125,483.5326 A4.1667,4.1667 0 0 1 270.1458,479.3659 L270.1458,251.3034 A4.1667,4.1667 0 0 1 274.3125,247.1367" fill="url(#g19er72k9du6l61)" style="stroke:#446E9B;stroke-width:2.0833;"/><line style="stroke:#446E9B;stroke-width:2.0833;" x1="270.1458" x2="342.9323" y1="278.3542" y2="278.3542"/><text fill="#446E9B" font-family="'Verdana'" font-size="12.5" font-weight="bold" lengthAdjust="spacing" textLength="48.8281" x="279.5208" y="266.0312">GitHub</text></g><!--cluster CI Workflow--><g class="cluster" data-entity="CI Workflow" data-source-line="12" data-uid="ent0006" id="cluster_CI Workflow"><rect fill="url(#g19er72k9du6l61)" height="478.9688" rx="4.1667" ry="4.1667" style="stroke:#3399F3;stroke-width:2.0833;" width="235.4167" x="185.7708" y="517.9076"/><path d="M291.4919,517.9076 L291.4919,535.5833 L281.0752,546 L185.7708,546" fill="none" style="stroke:#3399F3;stroke-width:2.0833;"/><text fill="#3399F3" font-family="'Verdana'" font-size="12.5" font-weight="bold" lengthAdjust="spacing" textLength="84.8877" x="194.1042" y="535.7603">CI Workflow</text></g><!--entity GH--><g class="entity" data-entity="GH" data-source-line="8" data-uid="ent0004" id="entity_GH"><rect fill="url(#g19er72k9du6l62)" height="56.2174" rx="4.1667" ry="4.1667" style="stroke:#304D6D;stroke-width:1.0417;" width="195.1131" x="287.1771" y="290.8867"/><rect fill="url(#g19er72k9du6l62)" height="10.4167" style="stroke:#304D6D;stroke-width:1.0417;" width="15.625" x="461.4569" y="296.0951"/><rect fill="url(#g19er72k9du6l62)" height="2.0833" style="stroke:#304D6D;stroke-width:1.0417;" width="4.1667" x="459.3735" y="298.1784"/><rect fill="url(#g19er72k9du6l62)" height="2.0833" style="stroke:#304D6D;stroke-width:1.0417;" width="4.1667" x="459.3735" y="302.3451"/><text fill="#FFFFFF" font-family="'Verdana'" font-size="12.5" lengthAdjust="spacing" textLength="143.0298" x="308.0104" y="328.5312">Repo: mlops-linear-reg</text></g><!--entity Runner--><g class="entity" data-entity="Runner" data-source-line="9" data-uid="ent0005" id="entity_Runner"><path d="M324.8062,420.3552 C328.7018,414.8175 333.2502,413.5079 337.7474,419.6911 C340.5416,412.8377 344.783,412.1064 349.6649,417.6907 C352.0956,410.2718 357.392,409.3054 362.2602,415.4228 C365.2584,410.1884 368.9805,409.523 373.1213,414.1662 C376.0834,407.9199 381.6093,406.1928 386.0185,412.703 C389.9172,407.6835 395.5485,408.8737 397.6845,414.6141 C402.1086,407.8102 406.9452,407.9145 411.0451,414.9276 C415.6308,411.1523 419.8242,411.3058 421.7598,417.7154 C425.7572,412.8974 431.6534,413.127 433.9555,419.5541 C437.773,413.2861 441.5894,413.9334 445.565,419.3977 C458.3825,420.1875 461.4899,429.8987 454.2162,439.3847 C462.3441,450.0588 458.3704,457.6866 445.7975,459.8416 C442.3799,466.1461 438.0718,466.5264 433.5004,461.0454 C430.0259,465.9212 425.832,466.3059 422.6342,460.7569 C418.1675,467.3484 412.5097,466.7227 409.6395,459.2787 C406.0208,465.0132 401.8252,465.2391 397.1037,460.6131 C394.0008,465.5542 388.7572,465.9443 386.2764,459.9946 C382.6382,467.2569 376.9687,466.1657 372.7384,460.6205 C369.231,465.006 365.9078,465.4772 362.5554,460.4527 C359.448,465.7664 354.4822,467.0067 350.6627,461.2152 C347.191,466.3623 341.0322,466.6588 337.9417,460.7755 C333.9113,465.3647 329.1181,464.9998 326.6943,459.0595 C313.7687,459.311 310.0068,449.7493 315.8392,439.5591 C308.8288,429.087 311.9301,421.5416 324.8062,420.3552" fill="url(#g19er72k9du6l63)" style="stroke:#F2FCFE;stroke-width:1.0417;"/><text fill="#333333" font-family="'Verdana'" font-size="12.5" lengthAdjust="spacing" textLength="95.1355" x="337.1667" y="443.0833">Actions Runner</text></g><!--entity J1--><g class="entity" data-entity="J1" data-source-line="13" data-uid="ent0007" id="entity_J1"><rect fill="url(#g19er72k9du6l62)" height="70.7682" rx="4.1667" ry="4.1667" style="stroke:#304D6D;stroke-width:1.0417;" width="111.0982" x="245.8438" y="561.6576"/><rect fill="url(#g19er72k9du6l62)" height="10.4167" style="stroke:#304D6D;stroke-width:1.0417;" width="15.625" x="336.1086" y="566.8659"/><rect fill="url(#g19er72k9du6l62)" height="2.0833" style="stroke:#304D6D;stroke-width:1.0417;" width="4.1667" x="334.0253" y="568.9492"/><rect fill="url(#g19er72k9du6l62)" height="2.0833" style="stroke:#304D6D;stroke-width:1.0417;" width="4.1667" x="334.0253" y="573.1159"/><text fill="#FFFFFF" font-family="'Verdana'" font-size="12.5" lengthAdjust="spacing" textLength="59.0149" x="266.6771" y="599.302">test-suite</text><text fill="#FFFFFF" font-family="'Verdana'" font-size="12.5" lengthAdjust="spacing" textLength="49.0906" x="266.6771" y="613.8528">(pytest)</text></g><!--entity J2--><g class="entity" data-entity="J2" data-source-line="14" data-uid="ent0008" id="entity_J2"><rect fill="url(#g19er72k9du6l62)" height="70.7682" rx="4.1667" ry="4.1667" style="stroke:#304D6D;stroke-width:1.0417;" width="167.7816" x="202.9271" y="735.5534"/><rect fill="url(#g19er72k9du6l62)" height="10.4167" style="stroke:#304D6D;stroke-width:1.0417;" width="15.625" x="349.8753" y="740.7617"/><rect fill="url(#g19er72k9du6l62)" height="2.0833" style="stroke:#304D6D;stroke-width:1.0417;" width="4.1667" x="347.792" y="742.8451"/><rect fill="url(#g19er72k9du6l62)" height="2.0833" style="stroke:#304D6D;stroke-width:1.0417;" width="4.1667" x="347.792" y="747.0117"/><text fill="#FFFFFF" font-family="'Verdana'" font-size="12.5" lengthAdjust="spacing" textLength="115.6982" x="223.7604" y="773.1978">train-and-quantize</text><text fill="#FFFFFF" font-family="'Verdana'" font-size="12.5" lengthAdjust="spacing" textLength="69.7021" x="223.7604" y="787.7486">(R&#178; &#8776; 0.58)</text></g><!--entity J3--><g class="entity" data-entity="J3" data-source-line="15" data-uid="ent0009" id="entity_J3"><rect fill="url(#g19er72k9du6l62)" height="70.7682" rx="4.1667" ry="4.1667" style="stroke:#304D6D;stroke-width:1.0417;" width="203.1026" x="201.9271" y="909.4388"/><rect fill="url(#g19er72k9du6l62)" height="10.4167" style="stroke:#304D6D;stroke-width:1.0417;" width="15.625" x="384.1964" y="914.6471"/><rect fill="url(#g19er72k9du6l62)" height="2.0833" style="stroke:#304D6D;stroke-width:1.0417;" width="4.1667" x="382.113" y="916.7305"/><rect fill="url(#g19er72k9du6l62)" height="2.0833" style="stroke:#304D6D;stroke-width:1.0417;" width="4.1667" x="382.113" y="920.8971"/><text fill="#FFFFFF" font-family="'Verdana'" font-size="12.5" lengthAdjust="spacing" textLength="151.0193" x="222.7604" y="947.0833">build-and-test-container</text><text fill="#FFFFFF" font-family="'Verdana'" font-size="12.5" lengthAdjust="spacing" textLength="52.2766" x="222.7604" y="961.634">(docker)</text></g><!--entity Dev--><g class="entity" data-entity="Dev" data-source-line="5" data-uid="ent0002" id="entity_Dev"><ellipse cx="384.7316" cy="94.043" fill="#ADD8E6" rx="8.3333" ry="8.3333" style="stroke:#304D6D;stroke-width:1.0417;"/><path d="M384.7316,102.3763 L384.7316,130.5013 M371.1899,110.7096 L398.2732,110.7096 M384.7316,130.5013 L371.1899,146.1263 M384.7316,130.5013 L398.2732,146.1263" fill="none" style="stroke:#304D6D;stroke-width:1.0417;"/><text fill="#FFFFFF" font-family="'Verdana'" font-size="12.5" lengthAdjust="spacing" textLength="24.7131" x="372.375" y="165.0208">Dev</text></g><!--entity Art--><g class="entity" data-entity="Art" data-source-line="18" data-uid="ent0010" id="entity_Art"><path d="M16.6667,920.3763 C16.6667,909.9596 90.98,909.9596 90.98,909.9596 C90.98,909.9596 165.2934,909.9596 165.2934,920.3763 L165.2934,969.2695 C165.2934,979.6862 90.98,979.6862 90.98,979.6862 C90.98,979.6862 16.6667,979.6862 16.6667,969.2695 L16.6667,920.3763" fill="url(#g19er72k9du6l62)" style="stroke:#304D6D;stroke-width:1.0417;"/><path d="M16.6667,920.3763 C16.6667,930.793 90.98,930.793 90.98,930.793 C90.98,930.793 165.2934,930.793 165.2934,920.3763" fill="none" style="stroke:#304D6D;stroke-width:1.0417;"/><text fill="#FFFFFF" font-family="'Verdana'" font-size="12.5" lengthAdjust="spacing" textLength="94.9524" x="32.2917" y="951.7708">model-artifacts</text><text fill="#FFFFFF" font-family="'Verdana'" font-size="12.5" lengthAdjust="spacing" textLength="117.3767" x="32.2917" y="966.3215">(1.1 KB &#8594; 0.23 KB)</text></g><!--entity Img--><g class="entity" data-entity="Img" data-source-line="19" data-uid="ent0011" id="entity_Img"><path d="M244.1875,1075.0013 L244.1875,1127.0195 A4.1667,4.1667 0 0 0 248.3542,1131.1862 L358.606,1131.1862 A4.1667,4.1667 0 0 0 362.7727,1127.0195 L362.7727,1081.2513 L352.356,1070.8346 L248.3542,1070.8346 A4.1667,4.1667 0 0 0 244.1875,1075.0013" fill="url(#g19er72k9du6l64)" style="stroke:#EEEEEE;stroke-width:1.0417;"/><path d="M352.356,1070.8346 L352.356,1077.0846 A4.1667,4.1667 0 0 0 356.5227,1081.2513 L362.7727,1081.2513" fill="url(#g19er72k9du6l64)" style="stroke:#EEEEEE;stroke-width:1.0417;"/><text fill="#EEEEEE" font-family="'Verdana'" font-size="12.5" lengthAdjust="spacing" textLength="87.3352" x="259.8125" y="1098.0624">Docker Image</text><text fill="#EEEEEE" font-family="'Verdana'" font-size="12.5" lengthAdjust="spacing" textLength="74.9695" x="259.8125" y="1112.6132">cali-reg:test</text></g><!--link Dev to GH--><g class="link" data-entity-1="Dev" data-entity-2="GH" data-source-line="21" data-uid="lnk12" id="link_Dev_GH"><path d="M384.7292,173.5638 C384.7292,209.6888 384.7292,253.6471 384.7292,284.3451" fill="none" id="Dev-to-GH" style="stroke:#446E9B;stroke-width:3.125;"/><polygon fill="#446E9B" points="384.7292,290.5951,388.8958,281.2201,384.7292,285.3867,380.5625,281.2201,384.7292,290.5951" style="stroke:#446E9B;stroke-width:3.125;"/><text fill="#FFFFFF" font-family="'Verdana'" font-size="12.5" lengthAdjust="spacing" textLength="85.7788" x="390.9792" y="222.2812">git push main</text></g><!--link GH to Runner--><g class="link" data-entity-1="GH" data-entity-2="Runner" data-source-line="22" data-uid="lnk13" id="link_GH_Runner"><path d="M384.7292,347.3346 C384.7292,366.2096 384.7292,384.9805 384.7292,403.918" fill="none" id="GH-to-Runner" style="stroke:#446E9B;stroke-width:3.125;"/><polygon fill="#446E9B" points="384.7292,410.168,388.8958,400.793,384.7292,404.9596,380.5625,400.793,384.7292,410.168" style="stroke:#446E9B;stroke-width:3.125;"/></g><!--link Runner to J1--><g class="link" data-entity-1="Runner" data-entity-2="J1" data-source-line="23" data-uid="lnk14" id="link_Runner_J1"><path d="M370.0208,467.3659 C356.0521,493.5534 337.9418,527.5078 322.8376,555.8203" fill="none" id="Runner-to-J1" style="stroke:#446E9B;stroke-width:3.125;"/><polygon fill="#446E9B" points="319.8958,561.3346,327.9848,555.0243,322.3473,556.7393,320.6323,551.1019,319.8958,561.3346" style="stroke:#446E9B;stroke-width:3.125;"/></g><!--link J1 to J2--><g class="link" data-entity-1="J1" data-entity-2="J2" data-source-line="24" data-uid="lnk15" id="link_J1_J2"><path d="M298.4479,632.8555 C295.9167,662.6576 292.8208,699.1592 290.2895,728.9508" fill="none" id="J1-to-J2" style="stroke:#446E9B;stroke-width:3.125;"/><polygon fill="#446E9B" points="289.7604,735.1784,294.7058,726.1898,290.2014,729.9888,286.4024,725.4843,289.7604,735.1784" style="stroke:#446E9B;stroke-width:3.125;"/><text fill="#FFFFFF" font-family="'Verdana'" font-size="12.5" lengthAdjust="spacing" textLength="68.4387" x="301.3958" y="688.8228">on success</text></g><!--link J2 to Art--><g class="link" data-entity-1="J2" data-entity-2="Art" data-source-line="25" data-uid="lnk16" id="link_J2_Art"><path d="M223.9583,806.7721 C209.4375,815.9805 194.4896,826.4701 181.6042,837.5638 C156.625,859.0846 136.4281,882.7683 119.3968,904.8829" fill="none" id="J2-to-Art" style="stroke:#446E9B;stroke-width:3.125;"/><polygon fill="#446E9B" points="115.5833,909.8346,124.6048,904.9494,118.7613,905.7082,118.0024,899.8647,115.5833,909.8346" style="stroke:#446E9B;stroke-width:3.125;"/><text fill="#FFFFFF" font-family="'Verdana'" font-size="12.5" lengthAdjust="spacing" textLength="90.7043" x="187.8542" y="855.4166">upload *.joblib</text><text fill="#FFFFFF" font-family="'Verdana'" font-size="12.5" lengthAdjust="spacing" textLength="81.311" x="192.5508" y="869.9674">(size &#8595; &#8776;5&#215;)</text></g><!--link J2 to J3--><g class="link" data-entity-1="J2" data-entity-2="J3" data-source-line="26" data-uid="lnk17" id="link_J2_J3"><path d="M290.1875,806.7409 C293.0729,836.5534 296.6143,873.0514 299.5101,902.8535" fill="none" id="J2-to-J3" style="stroke:#446E9B;stroke-width:3.125;"/><polygon fill="#446E9B" points="300.1146,909.0742,303.355,899.3402,299.6109,903.8903,295.0608,900.1461,300.1146,909.0742" style="stroke:#446E9B;stroke-width:3.125;"/><text fill="#FFFFFF" font-family="'Verdana'" font-size="12.5" lengthAdjust="spacing" textLength="37.7502" x="302.4375" y="862.7083">needs</text></g><!--link J3 to Img--><g class="link" data-entity-1="J3" data-entity-2="Img" data-source-line="27" data-uid="lnk18" id="link_J3_Img"><path d="M303.4792,980.4492 C303.4792,1007.6055 303.4792,1038.7409 303.4792,1064.4388" fill="none" id="J3-to-Img" style="stroke:#446E9B;stroke-width:3.125;"/><polygon fill="#446E9B" points="303.4792,1070.6888,307.6458,1061.3138,303.4792,1065.4805,299.3125,1061.3138,303.4792,1070.6888" style="stroke:#446E9B;stroke-width:3.125;"/><text fill="#FFFFFF" font-family="'Verdana'" font-size="12.5" lengthAdjust="spacing" textLength="104.95" x="309.7292" y="1031.3958">buildx load=true</text></g><!--link J3 to Runner--><g class="link" data-entity-1="J3" data-entity-2="Runner" data-source-line="28" data-uid="lnk19" id="link_J3_Runner"><path d="M334.1771,909.1576 C354.9375,883.0013 380.1042,845.0951 388.8958,806.3138 C416.9792,682.5117 399.7024,535.2632 390.2961,473.5653" fill="none" id="J3-to-Runner" style="stroke:#446E9B;stroke-width:3.125;"/><polygon fill="#446E9B" points="389.3542,467.3867,386.648,477.2826,390.1391,472.5356,394.8862,476.0267,389.3542,467.3867" style="stroke:#446E9B;stroke-width:3.125;"/><text fill="#FFFFFF" font-family="'Verdana'" font-size="12.5" lengthAdjust="spacing" textLength="69.2444" x="415.8205" y="681.5312">smoke test</text><text fill="#FFFFFF" font-family="'Verdana'" font-size="12.5" lengthAdjust="spacing" textLength="81.427" x="409.7292" y="696.0819">5 predictions</text></g><!--SRC=[HLBBZjCm5DtxAovXCqLoHLjLGfL0cc6acPOYK3SiA0l7larD7TlumLDi4MnXmN_m2V0dyoLSEnd89iaz3vzxaZlfY3r2z4AY4IrZIIU305jjKGI-mmwURf_v2C-rHqD3E9F2Q1wmcp0cP781Bl4jmDsjxexfmcHaZCnEeaDehdIwpcq3dnZ0onrwjuBUE1-v6Up9vHM825VNH936PGNDkKpQsGYxR2s61We-FBFFZ1s2eBZDupMySE5qCExTw9um9XwpJhYtP_v3UPrKxysima5eouLL_4qMDkcFXRRx_Gjklds5-zFbWv4yB-GsQwCgkRfAPnEfCP14ENd2C98N9P4IIRGYKgZUAJHSXAGFL4mazcmwWoSNSFFbEvqnNz3pf2dAyv3OGLFFpMNrWtLFVUtjRRMhSYwj_lyYqRhl6AjTS_w8AWDOGQSJ-1oFq5D0LcOL7FiQRdL2BMnc0xYP5wMp4BEK62ChWm9GAWAoDquek3TzxLgZMzeYKbkqmu_IrVBFpya_mMPHd2oY8fF5CAEKDAiDleVYz305-YTkuJ7I2cBlJWXbpxrTWW-ezF3X_m80]--></g></svg>