<svg xmlns="http://www.w3.org/2000/svg" xmlns:xlink="http://www.w3.org/1999/xlink" contentStyleType="text/css" data-diagram-type="SEQUENCE" height="1100px" preserveAspectRatio="none" style="width:1442px;height:1100px;background:#FFFFFF;" version="1.1" viewBox="0 0 1442 1100" width="1442px" zoomAndPan="magnify"><title>Linear Regression MLOps CI/CD Sequence &#8212; c a l i - r e g</title><defs/><g><text fill="#000000" font-family="sans-serif" font-size="14" font-weight="bold" lengthAdjust="spacing" textLength="446.6396" x="493.835" y="27.9951">Linear Regression MLOps CI/CD Sequence &#8212; c a l i - r e g</text><g><title>User</title><rect fill="#000000" fill-opacity="0.00000" height="900.8516" width="8" x="19.9551" y="118.5938"/><line style="stroke:#181818;stroke-width:0.5;stroke-dasharray:5,5;" x1="23" x2="23" y1="118.5938" y2="1019.4453"/></g><g><title>Local repo</title><rect fill="#000000" fill-opacity="0.00000" height="900.8516" width="8" x="211.5015" y="118.5938"/><line style="stroke:#181818;stroke-width:0.5;stroke-dasharray:5,5;" x1="215.1001" x2="215.1001" y1="118.5938" y2="1019.4453"/></g><g><title>GitHub Repo</title><rect fill="#000000" fill-opacity="0.00000" height="900.8516" width="8" x="316.2817" y="118.5938"/><line style="stroke:#181818;stroke-width:0.5;stroke-dasharray:5,5;" x1="319.9028" x2="319.9028" y1="118.5938" y2="1019.4453"/></g><g><title>Actions Runner</title><rect fill="#000000" fill-opacity="0.00000" height="900.8516" width="8" x="453.3208" y="118.5938"/><line style="stroke:#181818;stroke-width:0.5;stroke-dasharray:5,5;" x1="457.0449" x2="457.0449" y1="118.5938" y2="1019.4453"/></g><g><title>test-suite</title><rect fill="#000000" fill-opacity="0.00000" height="900.8516" width="8" x="657.2705" y="118.5938"/><line style="stroke:#181818;stroke-width:0.5;stroke-dasharray:5,5;" x1="661.2222" x2="661.2222" y1="118.5938" y2="1019.4453"/></g><g><title>train-and-quantize</title><rect fill="#000000" fill-opacity="0.00000" height="900.8516" width="8" x="809.5249" y="118.5938"/><line style="stroke:#181818;stroke-width:0.5;stroke-dasharray:5,5;" x1="812.7339" x2="812.7339" y1="118.5938" y2="1019.4453"/></g><g><title>CI Artifacts</title><rect fill="#000000" fill-opacity="0.00000" height="900.8516" width="8" x="1000.8911" y="118.5938"/><line style="stroke:#181818;stroke-width:0.5;stroke-dasharray:5,5;" x1="1004.3638" x2="1004.3638" y1="118.5938" y2="1019.4453"/></g><g><title>build-and-test-container</title><rect fill="#000000" fill-opacity="0.00000" height="900.8516" width="8" x="1145.4648" y="118.5938"/><line style="stroke:#181818;stroke-width:0.5;stroke-dasharray:5,5;" x1="1148.894" x2="1148.894" y1="118.5938" y2="1019.4453"/></g><g class="participant participant-head" data-participant="Dev"><text fill="#000000" font-family="sans-serif" font-size="14" lengthAdjust="spacing" textLength="31.9102" x="5" y="115.292">User</text><ellipse cx="23.9551" cy="50.7969" fill="#E2E2F0" rx="8" ry="8" style="stroke:#181818;stroke-width:0.5;"/><path d="M23.9551,58.7969 L23.9551,85.7969 M10.9551,66.7969 L36.9551,66.7969 M23.9551,85.7969 L10.9551,100.7969 M23.9551,85.7969 L36.9551,100.7969" fill="none" style="stroke:#181818;stroke-width:0.5;"/></g><g class="participant participant-tail" data-participant="Dev"><text fill="#000000" font-family="sans-serif" font-size="14" lengthAdjust="spacing" textLength="31.9102" x="5" y="1031.4404">User</text><ellipse cx="23.9551" cy="1043.2422" fill="#E2E2F0" rx="8" ry="8" style="stroke:#181818;stroke-width:0.5;"/><path d="M23.9551,1051.2422 L23.9551,1078.2422 M10.9551,1059.2422 L36.9551,1059.2422 M23.9551,1078.2422 L10.9551,1093.2422 M23.9551,1078.2422 L36.9551,1093.2422" fill="none" style="stroke:#181818;stroke-width:0.5;"/></g><g class="participant participant-head" data-participant="Local"><rect fill="#E2E2F0" height="30.2969" rx="2.5" ry="2.5" style="stroke:#181818;stroke-width:0.5;" width="86.8027" x="172.1001" y="87.2969"/><text fill="#000000" font-family="sans-serif" font-size="14" lengthAdjust="spacing" textLength="72.8027" x="179.1001" y="107.292">Local repo</text></g><g class="participant participant-tail" data-participant="Local"><rect fill="#E2E2F0" height="30.2969" rx="2.5" ry="2.5" style="stroke:#181818;stroke-width:0.5;" width="86.8027" x="172.1001" y="1018.4453"/><text fill="#000000" font-family="sans-serif" font-size="14" lengthAdjust="spacing" textLength="72.8027" x="179.1001" y="1038.4404">Local repo</text></g><g class="participant participant-head" data-participant="GH"><rect fill="#E2E2F0" height="30.2969" rx="2.5" ry="2.5" style="stroke:#181818;stroke-width:0.5;" width="102.7578" x="268.9028" y="87.2969"/><text fill="#000000" font-family="sans-serif" font-size="14" lengthAdjust="spacing" textLength="88.7578" x="275.9028" y="107.292">GitHub Repo</text></g><g class="participant participant-tail" data-participant="GH"><rect fill="#E2E2F0" height="30.2969" rx="2.5" ry="2.5" style="stroke:#181818;stroke-width:0.5;" width="102.7578" x="268.9028" y="1018.4453"/><text fill="#000000" font-family="sans-serif" font-size="14" lengthAdjust="spacing" textLength="88.7578" x="275.9028" y="1038.4404">GitHub Repo</text></g><g class="participant participant-head" data-participant="Act"><rect fill="#E2E2F0" height="30.2969" rx="2.5" ry="2.5" style="stroke:#181818;stroke-width:0.5;" width="120.5518" x="397.0449" y="87.2969"/><text fill="#000000" font-family="sans-serif" font-size="14" lengthAdjust="spacing" textLength="106.5518" x="404.0449" y="107.292">Actions Runner</text></g><g class="participant participant-tail" data-participant="Act"><rect fill="#E2E2F0" height="30.2969" rx="2.5" ry="2.5" style="stroke:#181818;stroke-width:0.5;" width="120.5518" x="397.0449" y="1018.4453"/><text fill="#000000" font-family="sans-serif" font-size="14" lengthAdjust="spacing" textLength="106.5518" x="404.0449" y="1038.4404">Actions Runner</text></g><g class="participant participant-head" data-participant="Test"><rect fill="#E2E2F0" height="30.2969" rx="2.5" ry="2.5" style="stroke:#181818;stroke-width:0.5;" width="80.0967" x="621.2222" y="87.2969"/><text fill="#000000" font-family="sans-serif" font-size="14" lengthAdjust="spacing" textLength="66.0967" x="628.2222" y="107.292">test-suite</text></g><g class="participant participant-tail" data-participant="Test"><rect fill="#E2E2F0" height="30.2969" rx="2.5" ry="2.5" style="stroke:#181818;stroke-width:0.5;" width="80.0967" x="621.2222" y="1018.4453"/><text fill="#000000" font-family="sans-serif" font-size="14" lengthAdjust="spacing" textLength="66.0967" x="628.2222" y="1038.4404">test-suite</text></g><g class="participant participant-head" data-participant="TrainQ"><rect fill="#E2E2F0" height="30.2969" rx="2.5" ry="2.5" style="stroke:#181818;stroke-width:0.5;" width="143.582" x="741.7339" y="87.2969"/><text fill="#000000" font-family="sans-serif" font-size="14" lengthAdjust="spacing" textLength="129.582" x="748.7339" y="107.292">train-and-quantize</text></g><g class="participant participant-tail" data-participant="TrainQ"><rect fill="#E2E2F0" height="30.2969" rx="2.5" ry="2.5" style="stroke:#181818;stroke-width:0.5;" width="143.582" x="741.7339" y="1018.4453"/><text fill="#000000" font-family="sans-serif" font-size="14" lengthAdjust="spacing" textLength="129.582" x="748.7339" y="1038.4404">train-and-quantize</text></g><g class="participant participant-head" data-participant="Art"><text fill="#000000" font-family="sans-serif" font-size="14" lengthAdjust="spacing" textLength="77.0547" x="963.3638" y="115.292">CI Artifacts</text><path d="M986.8911,66.2969 C986.8911,56.2969 1004.8911,56.2969 1004.8911,56.2969 C1004.8911,56.2969 1022.8911,56.2969 1022.8911,66.2969 L1022.8911,92.2969 C1022.8911,102.2969 1004.8911,102.2969 1004.8911,102.2969 C1004.8911,102.2969 986.8911,102.2969 986.8911,92.2969 L986.8911,66.2969" fill="#E2E2F0" style="stroke:#181818;stroke-width:0.5;"/><path d="M986.8911,66.2969 C986.8911,76.2969 1004.8911,76.2969 1004.8911,76.2969 C1004.8911,76.2969 1022.8911,76.2969 1022.8911,66.2969" fill="none" style="stroke:#181818;stroke-width:0.5;"/></g><g class="participant participant-tail" data-participant="Art"><text fill="#000000" font-family="sans-serif" font-size="14" lengthAdjust="spacing" textLength="77.0547" x="963.3638" y="1031.4404">CI Artifacts</text><path d="M986.8911,1044.7422 C986.8911,1034.7422 1004.8911,1034.7422 1004.8911,1034.7422 C1004.8911,1034.7422 1022.8911,1034.7422 1022.8911,1044.7422 L1022.8911,1070.7422 C1022.8911,1080.7422 1004.8911,1080.7422 1004.8911,1080.7422 C1004.8911,1080.7422 986.8911,1080.7422 986.8911,1070.7422 L986.8911,1044.7422" fill="#E2E2F0" style="stroke:#181818;stroke-width:0.5;"/><path d="M986.8911,1044.7422 C986.8911,1054.7422 1004.8911,1054.7422 1004.8911,1054.7422 C1004.8911,1054.7422 1022.8911,1054.7422 1022.8911,1044.7422" fill="none" style="stroke:#181818;stroke-width:0.5;"/></g><g class="participant participant-head" data-participant="Cont"><rect fill="#E2E2F0" height="30.2969" rx="2.5" ry="2.5" style="stroke:#181818;stroke-width:0.5;" width="183.1416" x="1057.894" y="87.2969"/><text fill="#000000" font-family="sans-serif" font-size="14" lengthAdjust="spacing" textLength="169.1416" x="1064.894" y="107.292">build-and-test-container</text></g><g class="participant participant-tail" data-participant="Cont"><rect fill="#E2E2F0" height="30.2969" rx="2.5" ry="2.5" style="stroke:#181818;stroke-width:0.5;" width="183.1416" x="1057.894" y="1018.4453"/><text fill="#000000" font-family="sans-serif" font-size="14" lengthAdjust="spacing" textLength="169.1416" x="1064.894" y="1038.4404">build-and-test-container</text></g><rect fill="#EEEEEE" height="3" style="stroke:#EEEEEE;stroke-width:1;" width="1435.3096" x="0" y="149.1602"/><line style="stroke:#000000;stroke-width:1;" x1="0" x2="1435.3096" y1="149.1602" y2="149.1602"/><line style="stroke:#000000;stroke-width:1;" x1="0" x2="1435.3096" y1="152.1602" y2="152.1602"/><rect fill="#EEEEEE" height="23.1328" style="stroke:#000000;stroke-width:2;" width="134.2817" x="650.5139" y="138.5938"/><text fill="#000000" font-family="sans-serif" font-size="13" font-weight="bold" lengthAdjust="spacing" textLength="115.7559" x="656.5139" y="154.6606">Develop &amp; Push</text><g class="message" data-participant-1="Dev" data-participant-2="Local"><polygon fill="#181818" points="203.5015,188.8594,213.5015,192.8594,203.5015,196.8594,207.5015,192.8594" style="stroke:#181818;stroke-width:1;"/><line style="stroke:#181818;stroke-width:1;" x1="23.9551" x2="209.5015" y1="192.8594" y2="192.8594"/><text fill="#000000" font-family="sans-serif" font-size="13" lengthAdjust="spacing" textLength="167.5464" x="30.9551" y="187.7935">code, test, train, quantise</text></g><g class="message" data-participant-1="Dev" data-participant-2="GH"><polygon fill="#181818" points="308.2817,217.9922,318.2817,221.9922,308.2817,225.9922,312.2817,221.9922" style="stroke:#181818;stroke-width:1;"/><line style="stroke:#181818;stroke-width:1;" x1="23.9551" x2="314.2817" y1="221.9922" y2="221.9922"/><text fill="#000000" font-family="sans-serif" font-size="13" lengthAdjust="spacing" textLength="89.21" x="30.9551" y="216.9263">git push main</text></g><rect fill="#EEEEEE" height="3" style="stroke:#EEEEEE;stroke-width:1;" width="1435.3096" x="0" y="250.5586"/><line style="stroke:#000000;stroke-width:1;" x1="0" x2="1435.3096" y1="250.5586" y2="250.5586"/><line style="stroke:#000000;stroke-width:1;" x1="0" x2="1435.3096" y1="253.5586" y2="253.5586"/><rect fill="#EEEEEE" height="23.1328" style="stroke:#000000;stroke-width:2;" width="82.1421" x="676.5837" y="239.9922"/><text fill="#000000" font-family="sans-serif" font-size="13" font-weight="bold" lengthAdjust="spacing" textLength="63.6162" x="682.5837" y="256.0591">CI Starts</text><g class="message" data-participant-1="GH" data-participant-2="Act"><polygon fill="#181818" points="445.3208,290.2578,455.3208,294.2578,445.3208,298.2578,449.3208,294.2578" style="stroke:#181818;stroke-width:1;"/><line style="stroke:#181818;stroke-width:1;" x1="320.2817" x2="451.3208" y1="294.2578" y2="294.2578"/><text fill="#000000" font-family="sans-serif" font-size="13" lengthAdjust="spacing" textLength="113.0391" x="327.2817" y="289.1919">triggers workflow</text></g><rect fill="#EEEEEE" height="3" style="stroke:#EEEEEE;stroke-width:1;" width="1435.3096" x="0" y="322.8242"/><line style="stroke:#000000;stroke-width:1;" x1="0" x2="1435.3096" y1="322.8242" y2="322.8242"/><line style="stroke:#000000;stroke-width:1;" x1="0" x2="1435.3096" y1="325.8242" y2="325.8242"/><rect fill="#EEEEEE" height="23.1328" style="stroke:#000000;stroke-width:2;" width="85.1699" x="675.0698" y="312.2578"/><text fill="#000000" font-family="sans-serif" font-size="13" font-weight="bold" lengthAdjust="spacing" textLength="66.644" x="681.0698" y="328.3247">Unit Test</text><g class="message" data-participant-1="Act" data-participant-2="Test"><polygon fill="#181818" points="649.2705,362.5234,659.2705,366.5234,649.2705,370.5234,653.2705,366.5234" style="stroke:#181818;stroke-width:1;"/><line style="stroke:#181818;stroke-width:1;" x1="457.3208" x2="655.2705" y1="366.5234" y2="366.5234"/><text fill="#000000" font-family="sans-serif" font-size="13" lengthAdjust="spacing" textLength="179.9497" x="464.3208" y="361.4575">checkout, pip install, pytest</text></g><g class="message" data-participant-1="Test" data-participant-2="Test"><line style="stroke:#181818;stroke-width:1;" x1="661.2705" x2="703.2705" y1="395.6563" y2="395.6563"/><line style="stroke:#181818;stroke-width:1;" x1="703.2705" x2="703.2705" y1="395.6563" y2="408.6563"/><line style="stroke:#181818;stroke-width:1;" x1="662.2705" x2="703.2705" y1="408.6563" y2="408.6563"/><polygon fill="#181818" points="672.2705,404.6563,662.2705,408.6563,672.2705,412.6563,668.2705,408.6563" style="stroke:#181818;stroke-width:1;"/><text fill="#000000" font-family="sans-serif" font-size="13" lengthAdjust="spacing" textLength="107.1421" x="668.2705" y="390.5903">ensure 3 passed</text></g><rect fill="#EEEEEE" height="3" style="stroke:#EEEEEE;stroke-width:1;" width="1435.3096" x="0" y="437.2227"/><line style="stroke:#000000;stroke-width:1;" x1="0" x2="1435.3096" y1="437.2227" y2="437.2227"/><line style="stroke:#000000;stroke-width:1;" x1="0" x2="1435.3096" y1="440.2227" y2="440.2227"/><rect fill="#EEEEEE" height="23.1328" style="stroke:#000000;stroke-width:2;" width="142.2354" x="646.5371" y="426.6563"/><text fill="#000000" font-family="sans-serif" font-size="13" font-weight="bold" lengthAdjust="spacing" textLength="123.7095" x="652.5371" y="442.7231">Train &amp; Quantise</text><g class="message" data-participant-1="Test" data-participant-2="TrainQ"><polygon fill="#181818" points="801.5249,476.9219,811.5249,480.9219,801.5249,484.9219,805.5249,480.9219" style="stroke:#181818;stroke-width:1;"/><line style="stroke:#181818;stroke-width:1;" x1="661.2705" x2="807.5249" y1="480.9219" y2="480.9219"/><text fill="#000000" font-family="sans-serif" font-size="13" lengthAdjust="spacing" textLength="128.2544" x="668.2705" y="475.856">proceed on success</text></g><g class="message" data-participant-1="TrainQ" data-participant-2="TrainQ"><line style="stroke:#181818;stroke-width:1;" x1="813.5249" x2="855.5249" y1="555.4531" y2="555.4531"/><line style="stroke:#181818;stroke-width:1;" x1="855.5249" x2="855.5249" y1="555.4531" y2="568.4531"/><line style="stroke:#181818;stroke-width:1;" x1="814.5249" x2="855.5249" y1="568.4531" y2="568.4531"/><polygon fill="#181818" points="824.5249,564.4531,814.5249,568.4531,824.5249,572.4531,820.5249,568.4531" style="stroke:#181818;stroke-width:1;"/><text fill="#000000" font-family="sans-serif" font-size="13" lengthAdjust="spacing" textLength="124.7505" x="820.5249" y="504.9888">python -m src.train</text><text fill="#000000" font-family="sans-serif" font-size="13" lengthAdjust="spacing" textLength="177.3662" x="820.5249" y="520.1216">(R&#178;: 0.5758, RMSE: 0.7456)</text><text fill="#000000" font-family="sans-serif" font-size="13" lengthAdjust="spacing" textLength="159.2183" x="820.5249" y="535.2544">Save linear_model.joblib</text><text fill="#000000" font-family="sans-serif" font-size="13" lengthAdjust="spacing" textLength="139.8262" x="820.5249" y="550.3872">Coefficients/intercept</text></g><g class="message" data-participant-1="TrainQ" data-participant-2="TrainQ"><line style="stroke:#181818;stroke-width:1;" x1="813.5249" x2="855.5249" y1="642.9844" y2="642.9844"/><line style="stroke:#181818;stroke-width:1;" x1="855.5249" x2="855.5249" y1="642.9844" y2="655.9844"/><line style="stroke:#181818;stroke-width:1;" x1="814.5249" x2="855.5249" y1="655.9844" y2="655.9844"/><polygon fill="#181818" points="824.5249,651.9844,814.5249,655.9844,824.5249,659.9844,820.5249,655.9844" style="stroke:#181818;stroke-width:1;"/><text fill="#000000" font-family="sans-serif" font-size="13" lengthAdjust="spacing" textLength="150.7188" x="820.5249" y="592.52">python -m src.quantize</text><text fill="#000000" font-family="sans-serif" font-size="13" lengthAdjust="spacing" textLength="149.2842" x="820.5249" y="607.6528">(per-coef quantisation)</text><text fill="#000000" font-family="sans-serif" font-size="13" lengthAdjust="spacing" textLength="160.2402" x="820.5249" y="622.7856">Save quant_model.joblib</text><text fill="#000000" font-family="sans-serif" font-size="13" lengthAdjust="spacing" textLength="168.1558" x="820.5249" y="637.9185">Quantised coefs/intercept</text></g><g class="message" data-participant-1="TrainQ" data-participant-2="Art"><polygon fill="#181818" points="992.8911,681.1172,1002.8911,685.1172,992.8911,689.1172,996.8911,685.1172" style="stroke:#181818;stroke-width:1;"/><line style="stroke:#181818;stroke-width:1;" x1="813.5249" x2="998.8911" y1="685.1172" y2="685.1172"/><text fill="#000000" font-family="sans-serif" font-size="13" lengthAdjust="spacing" textLength="101.9878" x="820.5249" y="680.0513">upload artifacts</text></g><rect fill="#EEEEEE" height="3" style="stroke:#EEEEEE;stroke-width:1;" width="1435.3096" x="0" y="713.6836"/><line style="stroke:#000000;stroke-width:1;" x1="0" x2="1435.3096" y1="713.6836" y2="713.6836"/><line style="stroke:#000000;stroke-width:1;" x1="0" x2="1435.3096" y1="716.6836" y2="716.6836"/><rect fill="#EEEEEE" height="23.1328" style="stroke:#000000;stroke-width:2;" width="206.7021" x="614.3037" y="703.1172"/><text fill="#000000" font-family="sans-serif" font-size="13" font-weight="bold" lengthAdjust="spacing" textLength="188.1763" x="620.3037" y="719.1841">Build Container &amp; Results</text><g class="message" data-participant-1="TrainQ" data-participant-2="Cont"><polygon fill="#181818" points="1137.4648,753.3828,1147.4648,757.3828,1137.4648,761.3828,1141.4648,757.3828" style="stroke:#181818;stroke-width:1;"/><line style="stroke:#181818;stroke-width:1;" x1="813.5249" x2="1143.4648" y1="757.3828" y2="757.3828"/><text fill="#000000" font-family="sans-serif" font-size="13" lengthAdjust="spacing" textLength="128.2544" x="820.5249" y="752.3169">proceed on success</text></g><g class="message" data-participant-1="Cont" data-participant-2="Art"><polygon fill="#181818" points="1015.8911,782.5156,1005.8911,786.5156,1015.8911,790.5156,1011.8911,786.5156" style="stroke:#181818;stroke-width:1;"/><line style="stroke:#181818;stroke-width:1;" x1="1009.8911" x2="1148.4648" y1="786.5156" y2="786.5156"/><text fill="#000000" font-family="sans-serif" font-size="13" lengthAdjust="spacing" textLength="120.5737" x="1021.8911" y="781.4497">download artifacts</text></g><g class="message" data-participant-1="Cont" data-participant-2="Cont"><line style="stroke:#181818;stroke-width:1;" x1="1149.4648" x2="1191.4648" y1="815.6484" y2="815.6484"/><line style="stroke:#181818;stroke-width:1;" x1="1191.4648" x2="1191.4648" y1="815.6484" y2="828.6484"/><line style="stroke:#181818;stroke-width:1;" x1="1150.4648" x2="1191.4648" y1="828.6484" y2="828.6484"/><polygon fill="#181818" points="1160.4648,824.6484,1150.4648,828.6484,1160.4648,832.6484,1156.4648,828.6484" style="stroke:#181818;stroke-width:1;"/><text fill="#000000" font-family="sans-serif" font-size="13" lengthAdjust="spacing" textLength="124.1157" x="1156.4648" y="810.5825">docker buildx build</text><text fill="#000000" font-family="sans-serif" font-size="13" lengthAdjust="spacing" text-decoration="line-through" textLength="103.416" x="1284.7129" y="810.5825">tag cali-reg:test</text><text fill="#000000" font-family="sans-serif" font-size="13" lengthAdjust="spacing" textLength="36.0483" x="1392.2612" y="810.5825">load .</text></g><g class="message" data-participant-1="Cont" data-participant-2="Cont"><line style="stroke:#181818;stroke-width:1;" x1="1149.4648" x2="1191.4648" y1="857.7813" y2="857.7813"/><line style="stroke:#181818;stroke-width:1;" x1="1191.4648" x2="1191.4648" y1="857.7813" y2="870.7813"/><line style="stroke:#181818;stroke-width:1;" x1="1150.4648" x2="1191.4648" y1="870.7813" y2="870.7813"/><polygon fill="#181818" points="1160.4648,866.7813,1150.4648,870.7813,1160.4648,874.7813,1156.4648,870.7813" style="stroke:#181818;stroke-width:1;"/><text fill="#000000" font-family="sans-serif" font-size="13" lengthAdjust="spacing" textLength="183.8027" x="1156.4648" y="852.7153">docker run --rm cali-reg:test</text></g><g class="message" data-participant-1="Cont" data-participant-2="Cont"><line style="stroke:#181818;stroke-width:1;" x1="1149.4648" x2="1191.4648" y1="945.3125" y2="945.3125"/><line style="stroke:#181818;stroke-width:1;" x1="1191.4648" x2="1191.4648" y1="945.3125" y2="958.3125"/><line style="stroke:#181818;stroke-width:1;" x1="1150.4648" x2="1191.4648" y1="958.3125" y2="958.3125"/><polygon fill="#181818" points="1160.4648,954.3125,1150.4648,958.3125,1160.4648,962.3125,1156.4648,958.3125" style="stroke:#181818;stroke-width:1;"/><text fill="#000000" font-family="sans-serif" font-size="13" lengthAdjust="spacing" textLength="106.958" x="1156.4648" y="894.8481">print predictions</text><text fill="#000000" font-family="sans-serif" font-size="13" lengthAdjust="spacing" textLength="109.4082" x="1156.4648" y="909.981">print coefficients</text><text fill="#000000" font-family="sans-serif" font-size="13" lengthAdjust="spacing" textLength="171.4819" x="1156.4648" y="925.1138">print quantised R&#178;: 0.4854</text><text fill="#000000" font-family="sans-serif" font-size="13" lengthAdjust="spacing" textLength="159.2754" x="1156.4648" y="940.2466">quantised RMSE: 0.8203</text></g><rect fill="#EEEEEE" height="3" style="stroke:#EEEEEE;stroke-width:1;" width="1435.3096" x="0" y="986.8789"/><line style="stroke:#000000;stroke-width:1;" x1="0" x2="1435.3096" y1="986.8789" y2="986.8789"/><line style="stroke:#000000;stroke-width:1;" x1="0" x2="1435.3096" y1="989.8789" y2="989.8789"/><rect fill="#EEEEEE" height="23.1328" style="stroke:#000000;stroke-width:2;" width="45.9668" x="694.6714" y="976.3125"/><text fill="#000000" font-family="sans-serif" font-size="13" font-weight="bold" lengthAdjust="spacing" textLength="27.4409" x="700.6714" y="992.3794">End</text><!--SRC=[XLFRRXen47tVhnZnKBLIbaGDD0Y9IYc9819H6sZUa2hZ7HONOnjVGjEdVaI_f9_GJ-cNTEpT9G6bwikkF3vppkoPirvuYJ0H2fc5APOMdHDQmUtaet4ml3aTNi4Cjm4LH_ZpuoTmO211G0uM4CeiOznh2_SEBJ07L_YG6MQzuC8mvQ4rqPn9i6XqAzwduo5Y9FmuB4YyXep6X_UNtDD43gP1ARG9GgL3Z4VdSnU4ntJ_cOv70Ck4ofagycsWWlXU0sFvBYkOPmlc45h36xYajYLzbQkax17J8WXP9AOaohNon54FDgHJbWq6qGUKsi0h-1JS2WQ3Z2gGlwyCW3vmNU09H0fwnYbEe9hCOGCTZGbN2WycKcm8awXfn9cdYLna9GmXoG-2UYlA4gs3dRRhfTIx1BzNn10DYV0897mwqWmhv6iTQ08Z30ZbF9EI3eznh2o1di2eNB08vs2OSrWaxcGVVUDTFNcKsBSbQwdHMCqH2w1KkS0v1IohxmvGZtv5Y7m3pl9sScIkNaz__-h3MRjxqUsTmFHsTXrF5vtkkpTpDMCF238bzyk6t9JjhteXnMAkXXgNIreOAkzEXV9eEHh_VzKc6YHiqD9gSTaiXSKCDgAfTgJPM510R7jPbh94ci58pGfWJSoIanzYgb9yKfZ8qocw8AibFp54mCkMffkzHg5twaYb0TGKXUPhqabf_bQz8CyzAu7oANABPT-dJUQ9f_sFVXl8lTnk3hkEmSQI7VJ4GbG_yrnL9VviKqrjktUotdwdr-tCrRDodOFUsxFpPDwrAiYclm00]--></g></svg>