<svg xmlns="http://www.w3.org/2000/svg" xmlns:xlink="http://www.w3.org/1999/xlink" contentStyleType="text/css" data-diagram-type="SEQUENCE" height="987px" preserveAspectRatio="none" style="width:1406px;height:987px;background:#FFFFFF;" version="1.1" viewBox="0 0 1406 987" width="1406px" zoomAndPan="magnify"><title>GitHub Actions - push &#8594; green pipeline</title><defs/><g><text fill="#000000" font-family="sans-serif" font-size="14" font-weight="bold" lengthAdjust="spacing" textLength="307.583" x="545.658" y="27.9951">GitHub Actions - push &#8594; green pipeline</text><g><title>Developer</title><rect fill="#000000" fill-opacity="0.00000" height="788.3203" width="8" x="40.0015" y="118.5938"/><line style="stroke:#181818;stroke-width:0.5;stroke-dasharray:5,5;" x1="44" x2="44" y1="118.5938" y2="906.9141"/></g><g><title>GitHub Repo</title><rect fill="#000000" fill-opacity="0.00000" height="788.3203" width="8" x="153.2114" y="118.5938"/><line style="stroke:#181818;stroke-width:0.5;stroke-dasharray:5,5;" x1="156.8325" x2="156.8325" y1="118.5938" y2="906.9141"/></g><g><title>Actions Runner</title><rect fill="#000000" fill-opacity="0.00000" height="788.3203" width="8" x="295.2588" y="118.5938"/><line style="stroke:#181818;stroke-width:0.5;stroke-dasharray:5,5;" x1="298.9829" x2="298.9829" y1="118.5938" y2="906.9141"/></g><g><title>Job test-suite</title><rect fill="#000000" fill-opacity="0.00000" height="788.3203" width="8" x="510.2979" y="118.5938"/><line style="stroke:#181818;stroke-width:0.5;stroke-dasharray:5,5;" x1="514.2339" x2="514.2339" y1="118.5938" y2="906.9141"/></g><g><title>Job train-and-quantize</title><rect fill="#000000" fill-opacity="0.00000" height="788.3203" width="8" x="658.1685" y="118.5938"/><line style="stroke:#181818;stroke-width:0.5;stroke-dasharray:5,5;" x1="661.3618" x2="661.3618" y1="118.5938" y2="906.9141"/></g><g><title>Job build-and-test-container</title><rect fill="#000000" fill-opacity="0.00000" height="788.3203" width="8" x="857.5615" y="118.5938"/><line style="stroke:#181818;stroke-width:0.5;stroke-dasharray:5,5;" x1="860.9751" x2="860.9751" y1="118.5938" y2="906.9141"/></g><g><title>Artifact store</title><rect fill="#000000" fill-opacity="0.00000" height="788.3203" width="8" x="1020.9351" y="118.5938"/><line style="stroke:#181818;stroke-width:0.5;stroke-dasharray:5,5;" x1="1024.1479" x2="1024.1479" y1="118.5938" y2="906.9141"/></g><g><title>Local Docker Engine</title><rect fill="#000000" fill-opacity="0.00000" height="788.3203" width="8" x="1158.1885" y="118.5938"/><line style="stroke:#181818;stroke-width:0.5;stroke-dasharray:5,5;" x1="1161.7222" x2="1161.7222" y1="118.5938" y2="906.9141"/></g><g class="participant participant-head" data-participant="Dev"><text fill="#000000" font-family="sans-serif" font-size="14" lengthAdjust="spacing" textLength="72.0029" x="5" y="115.292">Developer</text><ellipse cx="44.0015" cy="50.7969" fill="#E2E2F0" rx="8" ry="8" style="stroke:#181818;stroke-width:0.5;"/><path d="M44.0015,58.7969 L44.0015,85.7969 M31.0015,66.7969 L57.0015,66.7969 M44.0015,85.7969 L31.0015,100.7969 M44.0015,85.7969 L57.0015,100.7969" fill="none" style="stroke:#181818;stroke-width:0.5;"/></g><g class="participant participant-tail" data-participant="Dev"><text fill="#000000" font-family="sans-serif" font-size="14" lengthAdjust="spacing" textLength="72.0029" x="5" y="918.9092">Developer</text><ellipse cx="44.0015" cy="930.7109" fill="#E2E2F0" rx="8" ry="8" style="stroke:#181818;stroke-width:0.5;"/><path d="M44.0015,938.7109 L44.0015,965.7109 M31.0015,946.7109 L57.0015,946.7109 M44.0015,965.7109 L31.0015,980.7109 M44.0015,965.7109 L57.0015,980.7109" fill="none" style="stroke:#181818;stroke-width:0.5;"/></g><g class="participant participant-head" data-participant="GH"><rect fill="#E2E2F0" height="30.2969" rx="2.5" ry="2.5" style="stroke:#181818;stroke-width:0.5;" width="102.7578" x="105.8325" y="87.2969"/><text fill="#000000" font-family="sans-serif" font-size="14" lengthAdjust="spacing" textLength="88.7578" x="112.8325" y="107.292">GitHub Repo</text></g><g class="participant participant-tail" data-participant="GH"><rect fill="#E2E2F0" height="30.2969" rx="2.5" ry="2.5" style="stroke:#181818;stroke-width:0.5;" width="102.7578" x="105.8325" y="905.9141"/><text fill="#000000" font-family="sans-serif" font-size="14" lengthAdjust="spacing" textLength="88.7578" x="112.8325" y="925.9092">GitHub Repo</text></g><g class="participant participant-head" data-participant="Act"><rect fill="#E2E2F0" height="30.2969" rx="2.5" ry="2.5" style="stroke:#181818;stroke-width:0.5;" width="120.5518" x="238.9829" y="87.2969"/><text fill="#000000" font-family="sans-serif" font-size="14" lengthAdjust="spacing" textLength="106.5518" x="245.9829" y="107.292">Actions Runner</text></g><g class="participant participant-tail" data-participant="Act"><rect fill="#E2E2F0" height="30.2969" rx="2.5" ry="2.5" style="stroke:#181818;stroke-width:0.5;" width="120.5518" x="238.9829" y="905.9141"/><text fill="#000000" font-family="sans-serif" font-size="14" lengthAdjust="spacing" textLength="106.5518" x="245.9829" y="925.9092">Actions Runner</text></g><g class="participant participant-head" data-participant="TS"><rect fill="#E2E2F0" height="30.2969" rx="2.5" ry="2.5" style="stroke:#181818;stroke-width:0.5;" width="106.1279" x="461.2339" y="87.2969"/><text fill="#000000" font-family="sans-serif" font-size="14" lengthAdjust="spacing" textLength="92.1279" x="468.2339" y="107.292">Job test-suite</text></g><g class="participant participant-tail" data-participant="TS"><rect fill="#E2E2F0" height="30.2969" rx="2.5" ry="2.5" style="stroke:#181818;stroke-width:0.5;" width="106.1279" x="461.2339" y="905.9141"/><text fill="#000000" font-family="sans-serif" font-size="14" lengthAdjust="spacing" textLength="92.1279" x="468.2339" y="925.9092">Job test-suite</text></g><g class="participant participant-head" data-participant="TQ"><rect fill="#E2E2F0" height="30.2969" rx="2.5" ry="2.5" style="stroke:#181818;stroke-width:0.5;" width="169.6133" x="577.3618" y="87.2969"/><text fill="#000000" font-family="sans-serif" font-size="14" lengthAdjust="spacing" textLength="155.6133" x="584.3618" y="107.292">Job train-and-quantize</text></g><g class="participant participant-tail" data-participant="TQ"><rect fill="#E2E2F0" height="30.2969" rx="2.5" ry="2.5" style="stroke:#181818;stroke-width:0.5;" width="169.6133" x="577.3618" y="905.9141"/><text fill="#000000" font-family="sans-serif" font-size="14" lengthAdjust="spacing" textLength="155.6133" x="584.3618" y="925.9092">Job train-and-quantize</text></g><g class="participant participant-head" data-participant="BT"><rect fill="#E2E2F0" height="30.2969" rx="2.5" ry="2.5" style="stroke:#181818;stroke-width:0.5;" width="209.1729" x="756.9751" y="87.2969"/><text fill="#000000" font-family="sans-serif" font-size="14" lengthAdjust="spacing" textLength="195.1729" x="763.9751" y="107.292">Job build-and-test-container</text></g><g class="participant participant-tail" data-participant="BT"><rect fill="#E2E2F0" height="30.2969" rx="2.5" ry="2.5" style="stroke:#181818;stroke-width:0.5;" width="209.1729" x="756.9751" y="905.9141"/><text fill="#000000" font-family="sans-serif" font-size="14" lengthAdjust="spacing" textLength="195.1729" x="763.9751" y="925.9092">Job build-and-test-container</text></g><g class="participant participant-head" data-participant="Art"><text fill="#000000" font-family="sans-serif" font-size="14" lengthAdjust="spacing" textLength="91.5742" x="976.1479" y="115.292">Artifact store</text><path d="M1006.9351,66.2969 C1006.9351,56.2969 1024.9351,56.2969 1024.9351,56.2969 C1024.9351,56.2969 1042.9351,56.2969 1042.9351,66.2969 L1042.9351,92.2969 C1042.9351,102.2969 1024.9351,102.2969 1024.9351,102.2969 C1024.9351,102.2969 1006.9351,102.2969 1006.9351,92.2969 L1006.9351,66.2969" fill="#E2E2F0" style="stroke:#181818;stroke-width:0.5;"/><path d="M1006.9351,66.2969 C1006.9351,76.2969 1024.9351,76.2969 1024.9351,76.2969 C1024.9351,76.2969 1042.9351,76.2969 1042.9351,66.2969" fill="none" style="stroke:#181818;stroke-width:0.5;"/></g><g class="participant participant-tail" data-participant="Art"><text fill="#000000" font-family="sans-serif" font-size="14" lengthAdjust="spacing" textLength="91.5742" x="976.1479" y="918.9092">Artifact store</text><path d="M1006.9351,932.2109 C1006.9351,922.2109 1024.9351,922.2109 1024.9351,922.2109 C1024.9351,922.2109 1042.9351,922.2109 1042.9351,932.2109 L1042.9351,958.2109 C1042.9351,968.2109 1024.9351,968.2109 1024.9351,968.2109 C1024.9351,968.2109 1006.9351,968.2109 1006.9351,958.2109 L1006.9351,932.2109" fill="#E2E2F0" style="stroke:#181818;stroke-width:0.5;"/><path d="M1006.9351,932.2109 C1006.9351,942.2109 1024.9351,942.2109 1024.9351,942.2109 C1024.9351,942.2109 1042.9351,942.2109 1042.9351,932.2109" fill="none" style="stroke:#181818;stroke-width:0.5;"/></g><g class="participant participant-head" data-participant="Dkr"><rect fill="#E2E2F0" height="30.2969" rx="2.5" ry="2.5" style="stroke:#181818;stroke-width:0.5;" width="156.9326" x="1083.7222" y="87.2969"/><text fill="#000000" font-family="sans-serif" font-size="14" lengthAdjust="spacing" textLength="142.9326" x="1090.7222" y="107.292">Local Docker Engine</text></g><g class="participant participant-tail" data-participant="Dkr"><rect fill="#E2E2F0" height="30.2969" rx="2.5" ry="2.5" style="stroke:#181818;stroke-width:0.5;" width="156.9326" x="1083.7222" y="905.9141"/><text fill="#000000" font-family="sans-serif" font-size="14" lengthAdjust="spacing" textLength="142.9326" x="1090.7222" y="925.9092">Local Docker Engine</text></g><rect fill="#EEEEEE" height="3" style="stroke:#EEEEEE;stroke-width:1;" width="1399.8989" x="0" y="149.1602"/><line style="stroke:#000000;stroke-width:1;" x1="0" x2="1399.8989" y1="149.1602" y2="149.1602"/><line style="stroke:#000000;stroke-width:1;" x1="0" x2="1399.8989" y1="152.1602" y2="152.1602"/><rect fill="#EEEEEE" height="23.1328" style="stroke:#000000;stroke-width:2;" width="54.3013" x="672.7988" y="138.5938"/><text fill="#000000" font-family="sans-serif" font-size="13" font-weight="bold" lengthAdjust="spacing" textLength="35.7754" x="678.7988" y="154.6606">Push</text><g class="message" data-participant-1="Dev" data-participant-2="GH"><polygon fill="#181818" points="145.2114,188.8594,155.2114,192.8594,145.2114,196.8594,149.2114,192.8594" style="stroke:#181818;stroke-width:1;"/><line style="stroke:#181818;stroke-width:1;" x1="44.0015" x2="151.2114" y1="192.8594" y2="192.8594"/><text fill="#000000" font-family="sans-serif" font-size="13" lengthAdjust="spacing" textLength="89.21" x="51.0015" y="187.7935">git push main</text></g><g class="message" data-participant-1="GH" data-participant-2="Act"><polygon fill="#181818" points="287.2588,217.9922,297.2588,221.9922,287.2588,225.9922,291.2588,221.9922" style="stroke:#181818;stroke-width:1;"/><line style="stroke:#181818;stroke-width:1;" x1="157.2114" x2="293.2588" y1="221.9922" y2="221.9922"/><text fill="#000000" font-family="sans-serif" font-size="13" lengthAdjust="spacing" textLength="106.2661" x="164.2114" y="216.9263">trigger workflow</text></g><rect fill="#EEEEEE" height="3" style="stroke:#EEEEEE;stroke-width:1;" width="1399.8989" x="0" y="250.5586"/><line style="stroke:#000000;stroke-width:1;" x1="0" x2="1399.8989" y1="250.5586" y2="250.5586"/><line style="stroke:#000000;stroke-width:1;" x1="0" x2="1399.8989" y1="253.5586" y2="253.5586"/><rect fill="#EEEEEE" height="23.1328" style="stroke:#000000;stroke-width:2;" width="89.3848" x="655.2571" y="239.9922"/><text fill="#000000" font-family="sans-serif" font-size="13" font-weight="bold" lengthAdjust="spacing" textLength="70.8589" x="661.2571" y="256.0591">test-suite</text><g class="message" data-participant-1="Act" data-participant-2="TS"><polygon fill="#181818" points="502.2979,305.3906,512.2979,309.3906,502.2979,313.3906,506.2979,309.3906" style="stroke:#181818;stroke-width:1;"/><line style="stroke:#181818;stroke-width:1;" x1="299.2588" x2="508.2979" y1="309.3906" y2="309.3906"/><text fill="#000000" font-family="sans-serif" font-size="13" lengthAdjust="spacing" textLength="164.2773" x="306.2588" y="289.1919">checkout &amp; setup-python</text><text fill="#000000" font-family="sans-serif" font-size="13" lengthAdjust="spacing" textLength="191.0391" x="306.2588" y="304.3247">pip install -r requirements.txt</text></g><g class="message" data-participant-1="TS" data-participant-2="TS"><line style="stroke:#181818;stroke-width:1;" x1="514.2979" x2="556.2979" y1="353.6563" y2="353.6563"/><line style="stroke:#181818;stroke-width:1;" x1="556.2979" x2="556.2979" y1="353.6563" y2="366.6563"/><line style="stroke:#181818;stroke-width:1;" x1="515.2979" x2="556.2979" y1="366.6563" y2="366.6563"/><polygon fill="#181818" points="525.2979,362.6563,515.2979,366.6563,525.2979,370.6563,521.2979,366.6563" style="stroke:#181818;stroke-width:1;"/><text fill="#000000" font-family="sans-serif" font-size="13" lengthAdjust="spacing" textLength="103.4604" x="521.2979" y="333.4575">pytest  (3 tests)</text><text fill="#000000" font-family="sans-serif" font-size="13" lengthAdjust="spacing" textLength="63.2163" x="521.2979" y="348.5903">&#9658; all pass</text></g><g class="message" data-participant-1="TS" data-participant-2="Act"><polygon fill="#181818" points="310.2588,391.7891,300.2588,395.7891,310.2588,399.7891,306.2588,395.7891" style="stroke:#181818;stroke-width:1;"/><line style="stroke:#181818;stroke-width:1;stroke-dasharray:2,2;" x1="304.2588" x2="513.2979" y1="395.7891" y2="395.7891"/><text fill="#000000" font-family="sans-serif" font-size="13" lengthAdjust="spacing" textLength="10.8926" x="316.2588" y="390.7231">&#10004;</text></g><rect fill="#EEEEEE" height="3" style="stroke:#EEEEEE;stroke-width:1;" width="1399.8989" x="0" y="424.3555"/><line style="stroke:#000000;stroke-width:1;" x1="0" x2="1399.8989" y1="424.3555" y2="424.3555"/><line style="stroke:#000000;stroke-width:1;" x1="0" x2="1399.8989" y1="427.3555" y2="427.3555"/><rect fill="#EEEEEE" height="23.1328" style="stroke:#000000;stroke-width:2;" width="155.4004" x="622.2493" y="413.7891"/><text fill="#000000" font-family="sans-serif" font-size="13" font-weight="bold" lengthAdjust="spacing" textLength="136.8745" x="628.2493" y="429.856">train-and-quantize</text><g class="message" data-participant-1="Act" data-participant-2="TQ"><polygon fill="#181818" points="650.1685,448.9219,660.1685,452.9219,650.1685,456.9219,654.1685,452.9219" style="stroke:#181818;stroke-width:1;"/><line style="stroke:#181818;stroke-width:1;" x1="299.2588" x2="656.1685" y1="452.9219" y2="452.9219"/></g><g class="message" data-participant-1="TQ" data-participant-2="TQ"><line style="stroke:#181818;stroke-width:1;" x1="662.1685" x2="704.1685" y1="497.1875" y2="497.1875"/><line style="stroke:#181818;stroke-width:1;" x1="704.1685" x2="704.1685" y1="497.1875" y2="510.1875"/><line style="stroke:#181818;stroke-width:1;" x1="663.1685" x2="704.1685" y1="510.1875" y2="510.1875"/><polygon fill="#181818" points="673.1685,506.1875,663.1685,510.1875,673.1685,514.1875,669.1685,510.1875" style="stroke:#181818;stroke-width:1;"/><text fill="#000000" font-family="sans-serif" font-size="13" lengthAdjust="spacing" textLength="124.7505" x="669.1685" y="476.9888">python -m src.train</text><text fill="#000000" font-family="sans-serif" font-size="13" lengthAdjust="spacing" textLength="150.7188" x="669.1685" y="492.1216">python -m src.quantize</text></g><path d="M831.7188,476.9883 L831.7188,501.9883 L1389.7188,501.9883 L1389.7188,486.9883 L1379.7188,476.9883 L831.7188,476.9883" fill="#FEFFDD" style="stroke:#181818;stroke-width:0.5;"/><path d="M1379.7188,476.9883 L1379.7188,486.9883 L1389.7188,486.9883 L1379.7188,476.9883" fill="#FEFFDD" style="stroke:#181818;stroke-width:0.5;"/><text fill="#000000" font-family="sans-serif" font-size="13" lengthAdjust="spacing" textLength="537.0117" x="837.7188" y="494.0552">Outputs:\n&#8226; linear_model.joblib 1.1 KB\n&#8226; quant_params.joblib 0.23 KB\nR&#178; &#8776; 0.58</text><g class="message" data-participant-1="TQ" data-participant-2="Art"><polygon fill="#181818" points="1012.9351,535.3203,1022.9351,539.3203,1012.9351,543.3203,1016.9351,539.3203" style="stroke:#181818;stroke-width:1;"/><line style="stroke:#181818;stroke-width:1;" x1="662.1685" x2="1018.9351" y1="539.3203" y2="539.3203"/><text fill="#000000" font-family="sans-serif" font-size="13" lengthAdjust="spacing" textLength="106.374" x="669.1685" y="534.2544">upload artefacts</text></g><g class="message" data-participant-1="TQ" data-participant-2="Act"><polygon fill="#181818" points="310.2588,564.4531,300.2588,568.4531,310.2588,572.4531,306.2588,568.4531" style="stroke:#181818;stroke-width:1;"/><line style="stroke:#181818;stroke-width:1;stroke-dasharray:2,2;" x1="304.2588" x2="661.1685" y1="568.4531" y2="568.4531"/><text fill="#000000" font-family="sans-serif" font-size="13" lengthAdjust="spacing" textLength="10.8926" x="316.2588" y="563.3872">&#10004;</text></g><rect fill="#EEEEEE" height="3" style="stroke:#EEEEEE;stroke-width:1;" width="1399.8989" x="0" y="597.0195"/><line style="stroke:#000000;stroke-width:1;" x1="0" x2="1399.8989" y1="597.0195" y2="597.0195"/><line style="stroke:#000000;stroke-width:1;" x1="0" x2="1399.8989" y1="600.0195" y2="600.0195"/><rect fill="#EEEEEE" height="23.1328" style="stroke:#000000;stroke-width:2;" width="197.625" x="601.137" y="586.4531"/><text fill="#000000" font-family="sans-serif" font-size="13" font-weight="bold" lengthAdjust="spacing" textLength="179.0991" x="607.137" y="602.52">build-and-test-container</text><g class="message" data-participant-1="Act" data-participant-2="BT"><polygon fill="#181818" points="849.5615,621.5859,859.5615,625.5859,849.5615,629.5859,853.5615,625.5859" style="stroke:#181818;stroke-width:1;"/><line style="stroke:#181818;stroke-width:1;" x1="299.2588" x2="855.5615" y1="625.5859" y2="625.5859"/></g><g class="message" data-participant-1="BT" data-participant-2="Art"><polygon fill="#181818" points="1012.9351,650.7188,1022.9351,654.7188,1012.9351,658.7188,1016.9351,654.7188" style="stroke:#181818;stroke-width:1;"/><line style="stroke:#181818;stroke-width:1;" x1="861.5615" x2="1018.9351" y1="654.7188" y2="654.7188"/><text fill="#000000" font-family="sans-serif" font-size="13" lengthAdjust="spacing" textLength="124.96" x="868.5615" y="649.6528">download artefacts</text></g><g class="message" data-participant-1="BT" data-participant-2="Dkr"><polygon fill="#181818" points="1150.1885,710.1172,1160.1885,714.1172,1150.1885,718.1172,1154.1885,714.1172" style="stroke:#181818;stroke-width:1;"/><line style="stroke:#181818;stroke-width:1;" x1="861.5615" x2="1156.1885" y1="714.1172" y2="714.1172"/><text fill="#000000" font-family="sans-serif" font-size="13" lengthAdjust="spacing" textLength="124.1157" x="868.5615" y="678.7856">docker buildx build</text><text fill="#000000" font-family="sans-serif" font-size="13" lengthAdjust="spacing" textLength="112.7979" x="868.5615" y="693.9185">--tag cali-reg:test</text><text fill="#000000" font-family="sans-serif" font-size="13" lengthAdjust="spacing" textLength="37.1655" x="868.5615" y="709.0513">--load</text></g><g class="message" data-participant-1="BT" data-participant-2="Dkr"><polygon fill="#181818" points="1150.1885,754.3828,1160.1885,758.3828,1150.1885,762.3828,1154.1885,758.3828" style="stroke:#181818;stroke-width:1;"/><line style="stroke:#181818;stroke-width:1;" x1="861.5615" x2="1156.1885" y1="758.3828" y2="758.3828"/><text fill="#000000" font-family="sans-serif" font-size="13" lengthAdjust="spacing" textLength="152.2803" x="868.5615" y="738.1841">docker run cali-reg:test</text><text fill="#000000" font-family="sans-serif" font-size="13" lengthAdjust="spacing" textLength="73.8804" x="868.5615" y="753.3169">&#9474; head -n 1</text></g><g class="message" data-participant-1="Dkr" data-participant-2="BT"><polygon fill="#181818" points="872.5615,783.5156,862.5615,787.5156,872.5615,791.5156,868.5615,787.5156" style="stroke:#181818;stroke-width:1;"/><line style="stroke:#181818;stroke-width:1;stroke-dasharray:2,2;" x1="866.5615" x2="1161.1885" y1="787.5156" y2="787.5156"/><text fill="#000000" font-family="sans-serif" font-size="13" lengthAdjust="spacing" textLength="168.1685" x="878.5615" y="782.4497">"Sample predictions: [...]"</text></g><g class="message" data-participant-1="BT" data-participant-2="Act"><polygon fill="#181818" points="310.2588,812.6484,300.2588,816.6484,310.2588,820.6484,306.2588,816.6484" style="stroke:#181818;stroke-width:1;"/><line style="stroke:#181818;stroke-width:1;stroke-dasharray:2,2;" x1="304.2588" x2="860.5615" y1="816.6484" y2="816.6484"/><text fill="#000000" font-family="sans-serif" font-size="13" lengthAdjust="spacing" textLength="10.8926" x="316.2588" y="811.5825">&#10004;</text></g><rect fill="#EEEEEE" height="3" style="stroke:#EEEEEE;stroke-width:1;" width="1399.8989" x="0" y="845.2148"/><line style="stroke:#000000;stroke-width:1;" x1="0" x2="1399.8989" y1="845.2148" y2="845.2148"/><line style="stroke:#000000;stroke-width:1;" x1="0" x2="1399.8989" y1="848.2148" y2="848.2148"/><rect fill="#EEEEEE" height="23.1328" style="stroke:#000000;stroke-width:2;" width="56.3198" x="671.7896" y="834.6484"/><text fill="#000000" font-family="sans-serif" font-size="13" font-weight="bold" lengthAdjust="spacing" textLength="37.7939" x="677.7896" y="850.7153">Done</text><g class="message" data-participant-1="Act" data-participant-2="GH"><polygon fill="#181818" points="168.2114,884.9141,158.2114,888.9141,168.2114,892.9141,164.2114,888.9141" style="stroke:#181818;stroke-width:1;"/><line style="stroke:#181818;stroke-width:1;stroke-dasharray:2,2;" x1="162.2114" x2="298.2588" y1="888.9141" y2="888.9141"/><text fill="#000000" font-family="sans-serif" font-size="13" lengthAdjust="spacing" textLength="118.0474" x="174.2114" y="883.8481">commit marked &#10003;</text></g><!--SRC=[TPF1RXCn48RlVefH3WWENX4g9BHIa1e5jG8aQ9eRGPLtrzsOxDgkFIQ54-A0u0eL9quy0aUEF4gUXB4tQTCDdDRo_FFD-9zPLDX8W2E5nw60mnALqHuusE0NiFxq5MedfGQhh6oKbeo94es3YNmB83mCw20ROwKRC2iSgb9PeH6EZg6BRy1JQSrj1PNg5DkQqw1r7pCxtM2UcW9GUkG-A9GzqScko0cbkT0LlmWKLEzxul5iHrm4rLH9dDYbqKZPiObAe2Y49sVWqE4cXKxgdDuFdYpeSITBrucUcr8qC37bKZfueclY3HWRZU1bT7GqOj4w_ZWwb4Eji7EwfReicaQHw4nE3r5rJOYLSSlpngmIuyQ2I8f2qfD9EPGBMIvDGBW3NcAmtBx3XT5pJPC3fJsAfW7kmCcBe9nifKQVuIKoojuoA8Nu07SFKY5_RwxNttz3pBJ2-oIzxc_zuwfhQS_mtTPE64qd7Je-jGIy1U_AB2LIVxSkjmoc3RsHB5WWUn7G1lGvTVFX9yGj5EwiDPLiiZUcQ5G1msm8pyPTF17EQ3IYzTlu_Up1GH9C__o2zPVFTF7m4PEwWbXcqsASSmx1DaPKG9ELSTG-1VSU_R_5sNdwUCPerwwvbLdf7haBnyM9uRGlYNlPVUQQSnGrq3efxcITnrBnCcB-bUo2xelNLnzX8Qagrp1aKSrJQvGqE1MjfL_VEbcfxXVCuLMMPQy72RxtvedHDwFTBd1fsfPsk1LkAIkIVliB]--></g></svg>